<?xml version="1.0" encoding="utf-8" standalone="no"?>
<!DOCTYPE svg PUBLIC "-//W3C//DTD SVG 1.1//EN"
  "http://www.w3.org/Graphics/SVG/1.1/DTD/svg11.dtd">
<!-- Created with matplotlib (https://matplotlib.org/) -->
<svg height="864pt" version="1.1" viewBox="0 0 1152 864" width="1152pt" xmlns="http://www.w3.org/2000/svg" xmlns:xlink="http://www.w3.org/1999/xlink">
 <defs>
  <style type="text/css">
*{stroke-linecap:butt;stroke-linejoin:round;}
  </style>
 </defs>
 <g id="figure_1">
  <g id="patch_1">
   <path d="M 0 864 
L 1152 864 
L 1152 0 
L 0 0 
z
" style="fill:#ffffff;"/>
  </g>
  <g id="axes_1">
   <g id="patch_2">
    <path d="M 144 756 
L 1036.8 756 
L 1036.8 103.68 
L 144 103.68 
z
" style="fill:#ffffff;"/>
   </g>
   <g id="PolyCollection_1">
    <path clip-path="url(#p452ea29c2b)" d="M -228 756 
L -228 756 
L -211.466667 756 
L -194.933333 756 
L -178.4 756 
L -161.866667 756 
L -145.333333 756 
L -128.8 756 
L -112.266667 756 
L -95.733333 756 
L -79.2 756 
L -62.666667 756 
L -46.133333 756 
L -29.6 756 
L -13.066667 756 
L 3.466667 756 
L 20 756 
L 36.533333 756 
L 53.066667 756 
L 69.6 756 
L 86.133333 756 
L 102.666667 756 
L 119.2 756 
L 135.733333 756 
L 152.266667 756 
L 168.8 756 
L 185.333333 756 
L 201.866667 756 
L 218.4 756 
L 234.933333 756 
L 251.466667 756 
L 268 756 
L 284.533333 756 
L 301.066667 756 
L 317.6 756 
L 334.133333 756 
L 350.666667 756 
L 367.2 756 
L 383.733333 756 
L 400.266667 756 
L 416.8 756 
L 433.333333 756 
L 449.866667 756 
L 466.4 756 
L 482.933333 756 
L 499.466667 756 
L 516 756 
L 532.533333 756 
L 549.066667 756 
L 565.6 756 
L 582.133333 756 
L 598.666667 756 
L 615.2 756 
L 631.733333 756 
L 648.266667 756 
L 664.8 756 
L 681.333333 756 
L 697.866667 756 
L 714.4 756 
L 730.933333 756 
L 747.466667 756 
L 764 756 
L 780.533333 756 
L 797.066667 756 
L 813.6 756 
L 830.133333 756 
L 846.666667 756 
L 863.2 756 
L 879.733333 756 
L 896.266667 756 
L 912.8 756 
L 929.333333 756 
L 945.866667 756 
L 962.4 756 
L 978.933333 756 
L 995.466667 756 
L 1012 756 
L 1028.533333 756 
L 1045.066667 756 
L 1061.6 756 
L 1078.133333 756 
L 1094.666667 756 
L 1111.2 756 
L 1127.733333 756 
L 1144.266667 756 
L 1160.8 756 
L 1177.333333 756 
L 1193.866667 756 
L 1210.4 756 
L 1226.933333 756 
L 1243.466667 756 
L 1260 756 
L 1276.533333 756 
L 1293.066667 756 
L 1309.6 756 
L 1326.133333 756 
L 1342.666667 756 
L 1359.2 756 
L 1375.733333 756 
L 1392.266667 756 
L 1408.8 756 
L 1408.8 756 
L 1408.8 756 
L 1392.266667 756 
L 1375.733333 756 
L 1359.2 756 
L 1342.666667 756 
L 1326.133333 756 
L 1309.6 755.999999 
L 1293.066667 755.999996 
L 1276.533333 755.999976 
L 1260 755.999885 
L 1243.466667 755.999485 
L 1226.933333 755.997881 
L 1210.4 755.991981 
L 1193.866667 755.972093 
L 1177.333333 755.910677 
L 1160.8 755.737027 
L 1144.266667 755.287755 
L 1127.733333 754.224984 
L 1111.2 751.928707 
L 1094.666667 747.403018 
L 1078.133333 739.281373 
L 1061.6 726.043254 
L 1045.066667 706.514079 
L 1028.533333 680.579345 
L 1012 649.842043 
L 995.466667 617.820116 
L 978.933333 589.37209 
L 962.4 569.39066 
L 945.866667 561.243826 
L 929.333333 565.670718 
L 912.8 580.656368 
L 896.266667 602.305542 
L 879.733333 626.238561 
L 863.2 648.852615 
L 846.666667 667.992072 
L 830.133333 682.954773 
L 813.6 694.065353 
L 797.066667 702.135012 
L 780.533333 708.036577 
L 764 712.475128 
L 747.466667 715.925152 
L 730.933333 718.664476 
L 714.4 720.842891 
L 697.866667 722.548112 
L 681.333333 723.852859 
L 664.8 724.83891 
L 648.266667 725.599672 
L 631.733333 726.226709 
L 615.2 726.789458 
L 598.666667 727.319432 
L 582.133333 727.808063 
L 565.6 728.220339 
L 549.066667 728.517694 
L 532.533333 728.678257 
L 516 728.704009 
L 499.466667 728.611925 
L 482.933333 728.414957 
L 466.4 728.103151 
L 449.866667 727.632903 
L 433.333333 726.925379 
L 416.8 725.868661 
L 400.266667 724.317041 
L 383.733333 722.087012 
L 367.2 718.960951 
L 350.666667 714.720068 
L 334.133333 709.228563 
L 317.6 702.571513 
L 301.066667 695.2086 
L 284.533333 688.061119 
L 268 682.435667 
L 251.466667 679.737128 
L 234.933333 681.032372 
L 218.4 686.637279 
L 201.866667 695.931066 
L 185.333333 707.510552 
L 168.8 719.626651 
L 152.266667 730.70345 
L 135.733333 739.717185 
L 119.2 746.312447 
L 102.666667 750.678042 
L 86.133333 753.302546 
L 69.6 754.739374 
L 53.066667 755.457066 
L 36.533333 755.784595 
L 20 755.921302 
L 3.466667 755.97353 
L -13.066667 755.991806 
L -29.6 755.997666 
L -46.133333 755.999388 
L -62.666667 755.999852 
L -79.2 755.999967 
L -95.733333 755.999993 
L -112.266667 755.999999 
L -128.8 756 
L -145.333333 756 
L -161.866667 756 
L -178.4 756 
L -194.933333 756 
L -211.466667 756 
L -228 756 
z
" style="fill:#1f77b4;fill-opacity:0.25;"/>
   </g>
   <g id="PolyCollection_2">
    <path clip-path="url(#p452ea29c2b)" d="M -228 756 
L -228 756 
L -211.482369 756 
L -194.964738 756 
L -178.447107 756 
L -161.929477 756 
L -145.411846 756 
L -128.894215 756 
L -112.376584 756 
L -95.858953 756 
L -79.341322 756 
L -62.823691 756 
L -46.30606 756 
L -29.78843 756 
L -13.270799 756 
L 3.246832 756 
L 19.764463 756 
L 36.282094 756 
L 52.799725 756 
L 69.317356 756 
L 85.834987 756 
L 102.352617 756 
L 118.870248 756 
L 135.387879 756 
L 151.90551 756 
L 168.423141 756 
L 184.940772 756 
L 201.458403 756 
L 217.976033 756 
L 234.493664 756 
L 251.011295 756 
L 267.528926 756 
L 284.046557 756 
L 300.564188 756 
L 317.081819 756 
L 333.59945 756 
L 350.11708 756 
L 366.634711 756 
L 383.152342 756 
L 399.669973 756 
L 416.187604 756 
L 432.705235 756 
L 449.222866 756 
L 465.740496 756 
L 482.258127 756 
L 498.775758 756 
L 515.293389 756 
L 531.81102 756 
L 548.328651 756 
L 564.846282 756 
L 581.363913 756 
L 597.881543 756 
L 614.399174 756 
L 630.916805 756 
L 647.434436 756 
L 663.952067 756 
L 680.469698 756 
L 696.987329 756 
L 713.50496 756 
L 730.02259 756 
L 746.540221 756 
L 763.057852 756 
L 779.575483 756 
L 796.093114 756 
L 812.610745 756 
L 829.128376 756 
L 845.646006 756 
L 862.163637 756 
L 878.681268 756 
L 895.198899 756 
L 911.71653 756 
L 928.234161 756 
L 944.751792 756 
L 961.269423 756 
L 977.787053 756 
L 994.304684 756 
L 1010.822315 756 
L 1027.339946 756 
L 1043.857577 756 
L 1060.375208 756 
L 1076.892839 756 
L 1093.41047 756 
L 1109.9281 756 
L 1126.445731 756 
L 1142.963362 756 
L 1159.480993 756 
L 1175.998624 756 
L 1192.516255 756 
L 1209.033886 756 
L 1225.551516 756 
L 1242.069147 756 
L 1258.586778 756 
L 1275.104409 756 
L 1291.62204 756 
L 1308.139671 756 
L 1324.657302 756 
L 1341.174933 756 
L 1357.692563 756 
L 1374.210194 756 
L 1390.727825 756 
L 1407.245456 756 
L 1407.245456 756 
L 1407.245456 756 
L 1390.727825 756 
L 1374.210194 756 
L 1357.692563 756 
L 1341.174933 756 
L 1324.657302 755.999998 
L 1308.139671 755.99999 
L 1291.62204 755.999958 
L 1275.104409 755.999831 
L 1258.586778 755.999363 
L 1242.069147 755.997764 
L 1225.551516 755.992667 
L 1209.033886 755.977533 
L 1192.516255 755.9357 
L 1175.998624 755.828063 
L 1159.480993 755.570391 
L 1142.963362 754.996785 
L 1126.445731 753.810162 
L 1109.9281 751.530866 
L 1093.41047 747.470143 
L 1076.892839 740.769862 
L 1060.375208 730.550731 
L 1043.857577 716.18383 
L 1027.339946 697.640848 
L 1010.822315 675.80602 
L 994.304684 652.589785 
L 977.787053 630.71523 
L 961.269423 613.165659 
L 944.751792 602.441066 
L 928.234161 599.887282 
L 911.71653 605.357957 
L 895.198899 617.335698 
L 878.681268 633.443015 
L 862.163637 651.121924 
L 845.646006 668.227128 
L 829.128376 683.361243 
L 812.610745 695.917417 
L 796.093114 705.907377 
L 779.575483 713.697653 
L 763.057852 719.75859 
L 746.540221 724.484119 
L 730.02259 728.099218 
L 713.50496 730.650647 
L 696.987329 732.068816 
L 680.469698 732.280907 
L 663.952067 731.340601 
L 647.434436 729.524409 
L 630.916805 727.344134 
L 614.399174 725.451027 
L 597.881543 724.455067 
L 581.363913 724.729269 
L 564.846282 726.285199 
L 548.328651 728.777498 
L 531.81102 731.634999 
L 515.293389 734.257421 
L 498.775758 736.191918 
L 482.258127 737.223309 
L 465.740496 737.359159 
L 449.222866 736.736728 
L 432.705235 735.500849 
L 416.187604 733.696585 
L 399.669973 731.20096 
L 383.152342 727.701813 
L 366.634711 722.728577 
L 350.11708 715.746078 
L 333.59945 706.323137 
L 317.081819 694.367304 
L 300.564188 680.372135 
L 284.046557 665.573861 
L 267.528926 651.898009 
L 251.011295 641.627428 
L 234.493664 636.83946 
L 217.976033 638.790432 
L 201.458403 647.490863 
L 184.940772 661.66026 
L 168.423141 679.091517 
L 151.90551 697.27556 
L 135.387879 714.036429 
L 118.870248 727.954071 
L 102.352617 738.476911 
L 85.834987 745.768458 
L 69.317356 750.418623 
L 52.799725 753.156083 
L 36.282094 754.646706 
L 19.764463 755.398679 
L 3.246832 755.750535 
L -13.270799 755.903382 
L -29.78843 755.965068 
L -46.30606 755.988211 
L -62.823691 755.996287 
L -79.341322 755.998908 
L -95.858953 755.9997 
L -112.376584 755.999923 
L -128.894215 755.999982 
L -145.411846 755.999996 
L -161.929477 755.999999 
L -178.447107 756 
L -194.964738 756 
L -211.482369 756 
L -228 756 
z
" style="fill:#ff7f0e;fill-opacity:0.25;"/>
   </g>
   <g id="PolyCollection_3">
    <path clip-path="url(#p452ea29c2b)" d="M -215.5752 756 
L -215.5752 756 
L -199.16737 756 
L -182.759539 756 
L -166.351709 756 
L -149.943879 756 
L -133.536048 756 
L -117.128218 756 
L -100.720388 756 
L -84.312558 756 
L -67.904727 756 
L -51.496897 756 
L -35.089067 756 
L -18.681236 756 
L -2.273406 756 
L 14.134424 756 
L 30.542255 756 
L 46.950085 756 
L 63.357915 756 
L 79.765745 756 
L 96.173576 756 
L 112.581406 756 
L 128.989236 756 
L 145.397067 756 
L 161.804897 756 
L 178.212727 756 
L 194.620558 756 
L 211.028388 756 
L 227.436218 756 
L 243.844048 756 
L 260.251879 756 
L 276.659709 756 
L 293.067539 756 
L 309.47537 756 
L 325.8832 756 
L 342.29103 756 
L 358.698861 756 
L 375.106691 756 
L 391.514521 756 
L 407.922352 756 
L 424.330182 756 
L 440.738012 756 
L 457.145842 756 
L 473.553673 756 
L 489.961503 756 
L 506.369333 756 
L 522.777164 756 
L 539.184994 756 
L 555.592824 756 
L 572.000655 756 
L 588.408485 756 
L 604.816315 756 
L 621.224145 756 
L 637.631976 756 
L 654.039806 756 
L 670.447636 756 
L 686.855467 756 
L 703.263297 756 
L 719.671127 756 
L 736.078958 756 
L 752.486788 756 
L 768.894618 756 
L 785.302448 756 
L 801.710279 756 
L 818.118109 756 
L 834.525939 756 
L 850.93377 756 
L 867.3416 756 
L 883.74943 756 
L 900.157261 756 
L 916.565091 756 
L 932.972921 756 
L 949.380752 756 
L 965.788582 756 
L 982.196412 756 
L 998.604242 756 
L 1015.012073 756 
L 1031.419903 756 
L 1047.827733 756 
L 1064.235564 756 
L 1080.643394 756 
L 1097.051224 756 
L 1113.459055 756 
L 1129.866885 756 
L 1146.274715 756 
L 1162.682545 756 
L 1179.090376 756 
L 1195.498206 756 
L 1211.906036 756 
L 1228.313867 756 
L 1244.721697 756 
L 1261.129527 756 
L 1277.537358 756 
L 1293.945188 756 
L 1310.353018 756 
L 1326.760848 756 
L 1343.168679 756 
L 1359.576509 756 
L 1375.984339 756 
L 1392.39217 756 
L 1408.8 756 
L 1408.8 756 
L 1408.8 756 
L 1392.39217 756 
L 1375.984339 756 
L 1359.576509 756 
L 1343.168679 756 
L 1326.760848 756 
L 1310.353018 756 
L 1293.945188 756 
L 1277.537358 756 
L 1261.129527 756 
L 1244.721697 756 
L 1228.313867 756 
L 1211.906036 756 
L 1195.498206 756 
L 1179.090376 756 
L 1162.682545 756 
L 1146.274715 755.999993 
L 1129.866885 755.99991 
L 1113.459055 755.999072 
L 1097.051224 755.992455 
L 1080.643394 755.951675 
L 1064.235564 755.756104 
L 1047.827733 755.029247 
L 1031.419903 752.948882 
L 1015.012073 748.410409 
L 998.604242 740.999972 
L 982.196412 732.272602 
L 965.788582 725.533036 
L 949.380752 723.350006 
L 932.972921 725.237454 
L 916.565091 728.330102 
L 900.157261 730.066495 
L 883.74943 729.715971 
L 867.3416 727.856978 
L 850.93377 725.272576 
L 834.525939 722.381223 
L 818.118109 719.201288 
L 801.710279 715.556087 
L 785.302448 711.348665 
L 768.894618 706.749562 
L 752.486788 702.10387 
L 736.078958 697.561669 
L 719.671127 692.818479 
L 703.263297 687.341768 
L 686.855467 680.884443 
L 670.447636 673.700421 
L 654.039806 666.254132 
L 637.631976 658.836386 
L 621.224145 651.497754 
L 604.816315 644.171902 
L 588.408485 636.719934 
L 572.000655 629.058339 
L 555.592824 621.53244 
L 539.184994 615.057125 
L 522.777164 610.550191 
L 506.369333 608.163706 
L 489.961503 607.256163 
L 473.553673 607.17848 
L 457.145842 607.99628 
L 440.738012 610.438476 
L 424.330182 615.262069 
L 407.922352 622.715222 
L 391.514521 632.482046 
L 375.106691 643.977287 
L 358.698861 656.668557 
L 342.29103 670.208365 
L 325.8832 684.336325 
L 309.47537 698.66742 
L 293.067539 712.55717 
L 276.659709 725.1742 
L 260.251879 735.749639 
L 243.844048 743.835822 
L 227.436218 749.416655 
L 211.028388 752.845953 
L 194.620558 754.687978 
L 178.212727 755.535026 
L 161.804897 755.861938 
L 145.397067 755.966116 
L 128.989236 755.993197 
L 112.581406 755.998891 
L 96.173576 755.999854 
L 79.765745 755.999985 
L 63.357915 755.999999 
L 46.950085 756 
L 30.542255 756 
L 14.134424 756 
L -2.273406 756 
L -18.681236 756 
L -35.089067 756 
L -51.496897 756 
L -67.904727 756 
L -84.312558 756 
L -100.720388 756 
L -117.128218 756 
L -133.536048 756 
L -149.943879 756 
L -166.351709 756 
L -182.759539 756 
L -199.16737 756 
L -215.5752 756 
z
" style="fill:#2ca02c;fill-opacity:0.25;"/>
   </g>
   <g id="PolyCollection_4">
    <path clip-path="url(#p452ea29c2b)" d="M -228 755.999998 
L -228 756 
L -211.466667 756 
L -194.933333 756 
L -178.4 756 
L -161.866667 756 
L -145.333333 756 
L -128.8 756 
L -112.266667 756 
L -95.733333 756 
L -79.2 756 
L -62.666667 756 
L -46.133333 756 
L -29.6 756 
L -13.066667 756 
L 3.466667 756 
L 20 756 
L 36.533333 756 
L 53.066667 756 
L 69.6 756 
L 86.133333 756 
L 102.666667 756 
L 119.2 756 
L 135.733333 756 
L 152.266667 756 
L 168.8 756 
L 185.333333 756 
L 201.866667 756 
L 218.4 756 
L 234.933333 756 
L 251.466667 756 
L 268 756 
L 284.533333 756 
L 301.066667 756 
L 317.6 756 
L 334.133333 756 
L 350.666667 756 
L 367.2 756 
L 383.733333 756 
L 400.266667 756 
L 416.8 756 
L 433.333333 756 
L 449.866667 756 
L 466.4 756 
L 482.933333 756 
L 499.466667 756 
L 516 756 
L 532.533333 756 
L 549.066667 756 
L 565.6 756 
L 582.133333 756 
L 598.666667 756 
L 615.2 756 
L 631.733333 756 
L 648.266667 756 
L 664.8 756 
L 681.333333 756 
L 697.866667 756 
L 714.4 756 
L 730.933333 756 
L 747.466667 756 
L 764 756 
L 780.533333 756 
L 797.066667 756 
L 813.6 756 
L 830.133333 756 
L 846.666667 756 
L 863.2 756 
L 879.733333 756 
L 896.266667 756 
L 912.8 756 
L 929.333333 756 
L 945.866667 756 
L 962.4 756 
L 978.933333 756 
L 995.466667 756 
L 1012 756 
L 1028.533333 756 
L 1045.066667 756 
L 1061.6 756 
L 1078.133333 756 
L 1094.666667 756 
L 1111.2 756 
L 1127.733333 756 
L 1144.266667 756 
L 1160.8 756 
L 1177.333333 756 
L 1193.866667 756 
L 1210.4 756 
L 1226.933333 756 
L 1243.466667 756 
L 1260 756 
L 1276.533333 756 
L 1293.066667 756 
L 1309.6 756 
L 1326.133333 756 
L 1342.666667 756 
L 1359.2 756 
L 1375.733333 756 
L 1392.266667 756 
L 1408.8 756 
L 1408.8 755.999998 
L 1408.8 755.999998 
L 1392.266667 755.999991 
L 1375.733333 755.999968 
L 1359.2 755.999892 
L 1342.666667 755.999653 
L 1326.133333 755.998944 
L 1309.6 755.99694 
L 1293.066667 755.991557 
L 1276.533333 755.977829 
L 1260 755.944595 
L 1243.466667 755.868229 
L 1226.933333 755.701748 
L 1210.4 755.357537 
L 1193.866667 754.682921 
L 1177.333333 753.430348 
L 1160.8 751.228708 
L 1144.266667 747.568657 
L 1127.733333 741.820642 
L 1111.2 733.30577 
L 1094.666667 721.432069 
L 1078.133333 705.889308 
L 1061.6 686.86683 
L 1045.066667 665.230151 
L 1028.533333 642.578387 
L 1012 621.119525 
L 995.466667 603.348378 
L 978.933333 591.580688 
L 962.4 587.459882 
L 945.866667 591.580688 
L 929.333333 603.348378 
L 912.8 621.119525 
L 896.266667 642.578387 
L 879.733333 665.230151 
L 863.2 686.86683 
L 846.666667 705.889308 
L 830.133333 721.432069 
L 813.6 733.30577 
L 797.066667 741.820642 
L 780.533333 747.568657 
L 764 751.228708 
L 747.466667 753.430348 
L 730.933333 754.682921 
L 714.4 755.357537 
L 697.866667 755.701748 
L 681.333333 755.868229 
L 664.8 755.944592 
L 648.266667 755.977821 
L 631.733333 755.991528 
L 615.2 755.996842 
L 598.666667 755.998632 
L 582.133333 755.9987 
L 565.6 755.997128 
L 549.066667 755.992343 
L 532.533333 755.979969 
L 516 755.949963 
L 499.466667 755.881003 
L 482.933333 755.730661 
L 466.4 755.419818 
L 449.866667 754.810601 
L 433.333333 753.679454 
L 416.8 751.691244 
L 400.266667 748.386004 
L 383.733333 743.19521 
L 367.2 735.505783 
L 350.666667 724.783136 
L 334.133333 710.747113 
L 317.6 693.568702 
L 301.066667 674.029516 
L 284.533333 653.573648 
L 268 634.195039 
L 251.466667 618.146653 
L 234.933333 607.519741 
L 218.4 603.798412 
L 201.866667 607.519741 
L 185.333333 618.146653 
L 168.8 634.195039 
L 152.266667 653.573648 
L 135.733333 674.029516 
L 119.2 693.568702 
L 102.666667 710.747113 
L 86.133333 724.783136 
L 69.6 735.505783 
L 53.066667 743.19521 
L 36.533333 748.386004 
L 20 751.691244 
L 3.466667 753.679454 
L -13.066667 754.810601 
L -29.6 755.419818 
L -46.133333 755.730661 
L -62.666667 755.881004 
L -79.2 755.949966 
L -95.733333 755.979978 
L -112.266667 755.992375 
L -128.8 755.997236 
L -145.333333 755.999047 
L -161.866667 755.999687 
L -178.4 755.999902 
L -194.933333 755.999971 
L -211.466667 755.999992 
L -228 755.999998 
z
" style="fill:#d62728;fill-opacity:0.25;"/>
   </g>
   <g id="PolyCollection_5">
    <path clip-path="url(#p452ea29c2b)" d="M -124.584 756 
L -124.584 756 
L -109.095273 756 
L -93.606545 756 
L -78.117818 756 
L -62.629091 756 
L -47.140364 756 
L -31.651636 756 
L -16.162909 756 
L -0.674182 756 
L 14.814545 756 
L 30.303273 756 
L 45.792 756 
L 61.280727 756 
L 76.769455 756 
L 92.258182 756 
L 107.746909 756 
L 123.235636 756 
L 138.724364 756 
L 154.213091 756 
L 169.701818 756 
L 185.190545 756 
L 200.679273 756 
L 216.168 756 
L 231.656727 756 
L 247.145455 756 
L 262.634182 756 
L 278.122909 756 
L 293.611636 756 
L 309.100364 756 
L 324.589091 756 
L 340.077818 756 
L 355.566545 756 
L 371.055273 756 
L 386.544 756 
L 402.032727 756 
L 417.521455 756 
L 433.010182 756 
L 448.498909 756 
L 463.987636 756 
L 479.476364 756 
L 494.965091 756 
L 510.453818 756 
L 525.942545 756 
L 541.431273 756 
L 556.92 756 
L 572.408727 756 
L 587.897455 756 
L 603.386182 756 
L 618.874909 756 
L 634.363636 756 
L 649.852364 756 
L 665.341091 756 
L 680.829818 756 
L 696.318545 756 
L 711.807273 756 
L 727.296 756 
L 742.784727 756 
L 758.273455 756 
L 773.762182 756 
L 789.250909 756 
L 804.739636 756 
L 820.228364 756 
L 835.717091 756 
L 851.205818 756 
L 866.694545 756 
L 882.183273 756 
L 897.672 756 
L 913.160727 756 
L 928.649455 756 
L 944.138182 756 
L 959.626909 756 
L 975.115636 756 
L 990.604364 756 
L 1006.093091 756 
L 1021.581818 756 
L 1037.070545 756 
L 1052.559273 756 
L 1068.048 756 
L 1083.536727 756 
L 1099.025455 756 
L 1114.514182 756 
L 1130.002909 756 
L 1145.491636 756 
L 1160.980364 756 
L 1176.469091 756 
L 1191.957818 756 
L 1207.446545 756 
L 1222.935273 756 
L 1238.424 756 
L 1253.912727 756 
L 1269.401455 756 
L 1284.890182 756 
L 1300.378909 756 
L 1315.867636 756 
L 1331.356364 756 
L 1346.845091 756 
L 1362.333818 756 
L 1377.822545 756 
L 1393.311273 756 
L 1408.8 756 
L 1408.8 756 
L 1408.8 756 
L 1393.311273 756 
L 1377.822545 756 
L 1362.333818 756 
L 1346.845091 756 
L 1331.356364 756 
L 1315.867636 756 
L 1300.378909 756 
L 1284.890182 756 
L 1269.401455 756 
L 1253.912727 756 
L 1238.424 756 
L 1222.935273 756 
L 1207.446545 756 
L 1191.957818 756 
L 1176.469091 756 
L 1160.980364 756 
L 1145.491636 756 
L 1130.002909 756 
L 1114.514182 756 
L 1099.025455 756 
L 1083.536727 756 
L 1068.048 756 
L 1052.559273 756 
L 1037.070545 756 
L 1021.581818 756 
L 1006.093091 755.999984 
L 990.604364 755.996531 
L 975.115636 755.925114 
L 959.626909 755.842027 
L 944.138182 755.967437 
L 928.649455 755.999344 
L 913.160727 755.999999 
L 897.672 756 
L 882.183273 756 
L 866.694545 756 
L 851.205818 756 
L 835.717091 756 
L 820.228364 755.999989 
L 804.739636 755.997283 
L 789.250909 755.933057 
L 773.762182 755.838212 
L 758.273455 755.929919 
L 742.784727 755.840676 
L 727.296 755.828967 
L 711.807273 754.221278 
L 696.318545 747.409158 
L 680.829818 726.794827 
L 665.341091 672.353661 
L 649.852364 577.465737 
L 634.363636 441.430937 
L 618.874909 275.798784 
L 603.386182 142.718661 
L 587.897455 224.340735 
L 572.408727 373.667917 
L 556.92 452.562299 
L 541.431273 509.000844 
L 525.942545 559.972272 
L 510.453818 607.521 
L 494.965091 642.943894 
L 479.476364 672.893802 
L 463.987636 702.73703 
L 448.498909 722.251075 
L 433.010182 734.532353 
L 417.521455 741.903726 
L 402.032727 746.971238 
L 386.544 751.073485 
L 371.055273 753.542184 
L 355.566545 754.792595 
L 340.077818 755.351338 
L 324.589091 755.710009 
L 309.100364 755.920678 
L 293.611636 755.996514 
L 278.122909 755.999984 
L 262.634182 756 
L 247.145455 756 
L 231.656727 756 
L 216.168 756 
L 200.679273 756 
L 185.190545 756 
L 169.701818 756 
L 154.213091 756 
L 138.724364 756 
L 123.235636 756 
L 107.746909 756 
L 92.258182 756 
L 76.769455 756 
L 61.280727 756 
L 45.792 756 
L 30.303273 756 
L 14.814545 756 
L -0.674182 756 
L -16.162909 756 
L -31.651636 756 
L -47.140364 756 
L -62.629091 756 
L -78.117818 756 
L -93.606545 756 
L -109.095273 756 
L -124.584 756 
z
" style="fill:#9467bd;fill-opacity:0.25;"/>
   </g>
   <g id="PolyCollection_6">
    <path clip-path="url(#p452ea29c2b)" d="M -228 756 
L -228 756 
L -211.466667 756 
L -194.933333 756 
L -178.4 756 
L -161.866667 756 
L -145.333333 756 
L -128.8 756 
L -112.266667 756 
L -95.733333 756 
L -79.2 756 
L -62.666667 756 
L -46.133333 756 
L -29.6 756 
L -13.066667 756 
L 3.466667 756 
L 20 756 
L 36.533333 756 
L 53.066667 756 
L 69.6 756 
L 86.133333 756 
L 102.666667 756 
L 119.2 756 
L 135.733333 756 
L 152.266667 756 
L 168.8 756 
L 185.333333 756 
L 201.866667 756 
L 218.4 756 
L 234.933333 756 
L 251.466667 756 
L 268 756 
L 284.533333 756 
L 301.066667 756 
L 317.6 756 
L 334.133333 756 
L 350.666667 756 
L 367.2 756 
L 383.733333 756 
L 400.266667 756 
L 416.8 756 
L 433.333333 756 
L 449.866667 756 
L 466.4 756 
L 482.933333 756 
L 499.466667 756 
L 516 756 
L 532.533333 756 
L 549.066667 756 
L 565.6 756 
L 582.133333 756 
L 598.666667 756 
L 615.2 756 
L 631.733333 756 
L 648.266667 756 
L 664.8 756 
L 681.333333 756 
L 697.866667 756 
L 714.4 756 
L 730.933333 756 
L 747.466667 756 
L 764 756 
L 780.533333 756 
L 797.066667 756 
L 813.6 756 
L 830.133333 756 
L 846.666667 756 
L 863.2 756 
L 879.733333 756 
L 896.266667 756 
L 912.8 756 
L 929.333333 756 
L 945.866667 756 
L 962.4 756 
L 978.933333 756 
L 995.466667 756 
L 1012 756 
L 1028.533333 756 
L 1045.066667 756 
L 1061.6 756 
L 1078.133333 756 
L 1094.666667 756 
L 1111.2 756 
L 1127.733333 756 
L 1144.266667 756 
L 1160.8 756 
L 1177.333333 756 
L 1193.866667 756 
L 1210.4 756 
L 1226.933333 756 
L 1243.466667 756 
L 1260 756 
L 1276.533333 756 
L 1293.066667 756 
L 1309.6 756 
L 1326.133333 756 
L 1342.666667 756 
L 1359.2 756 
L 1375.733333 756 
L 1392.266667 756 
L 1408.8 756 
L 1408.8 756 
L 1408.8 756 
L 1392.266667 756 
L 1375.733333 756 
L 1359.2 756 
L 1342.666667 756 
L 1326.133333 756 
L 1309.6 756 
L 1293.066667 756 
L 1276.533333 756 
L 1260 756 
L 1243.466667 756 
L 1226.933333 756 
L 1210.4 756 
L 1193.866667 756 
L 1177.333333 756 
L 1160.8 756 
L 1144.266667 756 
L 1127.733333 756 
L 1111.2 756 
L 1094.666667 756 
L 1078.133333 756 
L 1061.6 756 
L 1045.066667 756 
L 1028.533333 756 
L 1012 756 
L 995.466667 755.999982 
L 978.933333 755.979098 
L 962.4 755.781842 
L 945.866667 755.979098 
L 929.333333 755.999982 
L 912.8 756 
L 896.266667 756 
L 879.733333 755.999647 
L 863.2 755.92024 
L 846.666667 755.757094 
L 830.133333 752.491343 
L 813.6 719.601709 
L 797.066667 577.699921 
L 780.533333 346.733241 
L 764 184.339112 
L 747.466667 134.742857 
L 730.933333 174.20761 
L 714.4 285.255008 
L 697.866667 423.0256 
L 681.333333 552.901928 
L 664.8 652.933241 
L 648.266667 703.100572 
L 631.733333 729.709086 
L 615.2 745.455731 
L 598.666667 750.71917 
L 582.133333 753.215021 
L 565.6 754.761709 
L 549.066667 755.400891 
L 532.533333 755.976356 
L 516 755.999984 
L 499.466667 756 
L 482.933333 756 
L 466.4 756 
L 449.866667 755.999995 
L 433.333333 755.989537 
L 416.8 755.791372 
L 400.266667 755.961813 
L 383.733333 755.999936 
L 367.2 756 
L 350.666667 756 
L 334.133333 756 
L 317.6 756 
L 301.066667 755.999997 
L 284.533333 755.992277 
L 268 755.800142 
L 251.466667 755.919753 
L 234.933333 755.744055 
L 218.4 755.55102 
L 201.866667 755.959172 
L 185.333333 755.999965 
L 168.8 756 
L 152.266667 756 
L 135.733333 756 
L 119.2 756 
L 102.666667 756 
L 86.133333 756 
L 69.6 756 
L 53.066667 756 
L 36.533333 756 
L 20 756 
L 3.466667 756 
L -13.066667 756 
L -29.6 756 
L -46.133333 756 
L -62.666667 756 
L -79.2 756 
L -95.733333 756 
L -112.266667 756 
L -128.8 756 
L -145.333333 756 
L -161.866667 756 
L -178.4 756 
L -194.933333 756 
L -211.466667 756 
L -228 756 
z
" style="fill:#8c564b;fill-opacity:0.25;"/>
   </g>
   <g id="PolyCollection_7">
    <path clip-path="url(#p452ea29c2b)" d="M -155.832 756 
L -155.832 756 
L -140.027636 756 
L -124.223273 756 
L -108.418909 756 
L -92.614545 756 
L -76.810182 756 
L -61.005818 756 
L -45.201455 756 
L -29.397091 756 
L -13.592727 756 
L 2.211636 756 
L 18.016 756 
L 33.820364 756 
L 49.624727 756 
L 65.429091 756 
L 81.233455 756 
L 97.037818 756 
L 112.842182 756 
L 128.646545 756 
L 144.450909 756 
L 160.255273 756 
L 176.059636 756 
L 191.864 756 
L 207.668364 756 
L 223.472727 756 
L 239.277091 756 
L 255.081455 756 
L 270.885818 756 
L 286.690182 756 
L 302.494545 756 
L 318.298909 756 
L 334.103273 756 
L 349.907636 756 
L 365.712 756 
L 381.516364 756 
L 397.320727 756 
L 413.125091 756 
L 428.929455 756 
L 444.733818 756 
L 460.538182 756 
L 476.342545 756 
L 492.146909 756 
L 507.951273 756 
L 523.755636 756 
L 539.56 756 
L 555.364364 756 
L 571.168727 756 
L 586.973091 756 
L 602.777455 756 
L 618.581818 756 
L 634.386182 756 
L 650.190545 756 
L 665.994909 756 
L 681.799273 756 
L 697.603636 756 
L 713.408 756 
L 729.212364 756 
L 745.016727 756 
L 760.821091 756 
L 776.625455 756 
L 792.429818 756 
L 808.234182 756 
L 824.038545 756 
L 839.842909 756 
L 855.647273 756 
L 871.451636 756 
L 887.256 756 
L 903.060364 756 
L 918.864727 756 
L 934.669091 756 
L 950.473455 756 
L 966.277818 756 
L 982.082182 756 
L 997.886545 756 
L 1013.690909 756 
L 1029.495273 756 
L 1045.299636 756 
L 1061.104 756 
L 1076.908364 756 
L 1092.712727 756 
L 1108.517091 756 
L 1124.321455 756 
L 1140.125818 756 
L 1155.930182 756 
L 1171.734545 756 
L 1187.538909 756 
L 1203.343273 756 
L 1219.147636 756 
L 1234.952 756 
L 1250.756364 756 
L 1266.560727 756 
L 1282.365091 756 
L 1298.169455 756 
L 1313.973818 756 
L 1329.778182 756 
L 1345.582545 756 
L 1361.386909 756 
L 1377.191273 756 
L 1392.995636 756 
L 1408.8 756 
L 1408.8 756 
L 1408.8 756 
L 1392.995636 756 
L 1377.191273 756 
L 1361.386909 756 
L 1345.582545 756 
L 1329.778182 756 
L 1313.973818 756 
L 1298.169455 756 
L 1282.365091 756 
L 1266.560727 756 
L 1250.756364 755.999998 
L 1234.952 755.99999 
L 1219.147636 755.999945 
L 1203.343273 755.999715 
L 1187.538909 755.998674 
L 1171.734545 755.994416 
L 1155.930182 755.978717 
L 1140.125818 755.926598 
L 1124.321455 755.770854 
L 1108.517091 755.352236 
L 1092.712727 754.34108 
L 1076.908364 752.148845 
L 1061.104 747.889807 
L 1045.299636 740.492186 
L 1029.495273 729.042944 
L 1013.690909 713.33384 
L 997.886545 694.383359 
L 982.082182 674.576733 
L 966.277818 657.164284 
L 950.473455 645.212278 
L 934.669091 640.491439 
L 918.864727 642.895001 
L 903.060364 650.675962 
L 887.256 661.300078 
L 871.451636 672.400083 
L 855.647273 682.379394 
L 839.842909 690.525648 
L 824.038545 696.782812 
L 808.234182 701.426712 
L 792.429818 704.816046 
L 776.625455 707.269517 
L 760.821091 709.039089 
L 745.016727 710.325496 
L 729.212364 711.291129 
L 713.408 712.046469 
L 697.603636 712.613649 
L 681.799273 712.899627 
L 665.994909 712.724859 
L 650.190545 711.928213 
L 634.386182 710.50559 
L 618.581818 708.682914 
L 602.777455 706.838922 
L 586.973091 705.29604 
L 571.168727 704.113286 
L 555.364364 703.0323 
L 539.56 701.615332 
L 523.755636 699.46835 
L 507.951273 696.392525 
L 492.146909 692.384475 
L 476.342545 687.524367 
L 460.538182 681.850854 
L 444.733818 675.301396 
L 428.929455 667.745359 
L 413.125091 659.104418 
L 397.320727 649.542751 
L 381.516364 639.687662 
L 365.712 630.790478 
L 349.907636 624.686005 
L 334.103273 623.427582 
L 318.298909 628.618455 
L 302.494545 640.683692 
L 286.690182 658.46952 
L 270.885818 679.458527 
L 255.081455 700.559934 
L 239.277091 719.094018 
L 223.472727 733.494101 
L 207.668364 743.459471 
L 191.864 749.627825 
L 176.059636 753.052008 
L 160.255273 754.759819 
L 144.450909 755.52606 
L 128.646545 755.835607 
L 112.842182 755.948279 
L 97.037818 755.985248 
L 81.233455 755.996188 
L 65.429091 755.999108 
L 49.624727 755.999811 
L 33.820364 755.999964 
L 18.016 755.999994 
L 2.211636 755.999999 
L -13.592727 756 
L -29.397091 756 
L -45.201455 756 
L -61.005818 756 
L -76.810182 756 
L -92.614545 756 
L -108.418909 756 
L -124.223273 756 
L -140.027636 756 
L -155.832 756 
z
" style="fill:#e377c2;fill-opacity:0.25;"/>
   </g>
   <g id="PolyCollection_8">
    <path clip-path="url(#p452ea29c2b)" d="M -37.099384 756 
L -37.099384 756 
L -24.422488 756 
L -11.745591 756 
L 0.931305 756 
L 13.608201 756 
L 26.285098 756 
L 38.961994 756 
L 51.63889 756 
L 64.315787 756 
L 76.992683 756 
L 89.669579 756 
L 102.346476 756 
L 115.023372 756 
L 127.700268 756 
L 140.377165 756 
L 153.054061 756 
L 165.730957 756 
L 178.407854 756 
L 191.08475 756 
L 203.761646 756 
L 216.438543 756 
L 229.115439 756 
L 241.792335 756 
L 254.469232 756 
L 267.146128 756 
L 279.823024 756 
L 292.499921 756 
L 305.176817 756 
L 317.853713 756 
L 330.53061 756 
L 343.207506 756 
L 355.884402 756 
L 368.561299 756 
L 381.238195 756 
L 393.915091 756 
L 406.591988 756 
L 419.268884 756 
L 431.94578 756 
L 444.622677 756 
L 457.299573 756 
L 469.976469 756 
L 482.653366 756 
L 495.330262 756 
L 508.007158 756 
L 520.684055 756 
L 533.360951 756 
L 546.037847 756 
L 558.714744 756 
L 571.39164 756 
L 584.068536 756 
L 596.745433 756 
L 609.422329 756 
L 622.099225 756 
L 634.776122 756 
L 647.453018 756 
L 660.129914 756 
L 672.806811 756 
L 685.483707 756 
L 698.160603 756 
L 710.8375 756 
L 723.514396 756 
L 736.191292 756 
L 748.868189 756 
L 761.545085 756 
L 774.221981 756 
L 786.898878 756 
L 799.575774 756 
L 812.25267 756 
L 824.929567 756 
L 837.606463 756 
L 850.283359 756 
L 862.960256 756 
L 875.637152 756 
L 888.314048 756 
L 900.990945 756 
L 913.667841 756 
L 926.344737 756 
L 939.021634 756 
L 951.69853 756 
L 964.375426 756 
L 977.052323 756 
L 989.729219 756 
L 1002.406115 756 
L 1015.083012 756 
L 1027.759908 756 
L 1040.436804 756 
L 1053.1137 756 
L 1065.790597 756 
L 1078.467493 756 
L 1091.144389 756 
L 1103.821286 756 
L 1116.498182 756 
L 1129.175078 756 
L 1141.851975 756 
L 1154.528871 756 
L 1167.205767 756 
L 1179.882664 756 
L 1192.55956 756 
L 1205.236456 756 
L 1217.913353 756 
L 1217.913353 756 
L 1217.913353 756 
L 1205.236456 756 
L 1192.55956 756 
L 1179.882664 756 
L 1167.205767 756 
L 1154.528871 756 
L 1141.851975 756 
L 1129.175078 756 
L 1116.498182 756 
L 1103.821286 756 
L 1091.144389 756 
L 1078.467493 756 
L 1065.790597 756 
L 1053.1137 756 
L 1040.436804 756 
L 1027.759908 756 
L 1015.083012 756 
L 1002.406115 756 
L 989.729219 755.999998 
L 977.052323 755.999981 
L 964.375426 755.999861 
L 951.69853 755.999117 
L 939.021634 755.995065 
L 926.344737 755.975678 
L 913.667841 755.894267 
L 900.990945 755.594556 
L 888.314048 754.628584 
L 875.637152 751.908118 
L 862.960256 745.230557 
L 850.283359 730.997723 
L 837.606463 704.798578 
L 824.929567 663.508748 
L 812.25267 608.62105 
L 799.575774 548.849293 
L 786.898878 499.16539 
L 774.221981 475.109639 
L 761.545085 485.020591 
L 748.868189 525.403926 
L 736.191292 582.905331 
L 723.514396 641.387592 
L 710.8375 689.058452 
L 698.160603 721.511364 
L 685.483707 740.326266 
L 672.806811 749.71674 
L 660.129914 753.778155 
L 647.453018 755.306959 
L 634.776122 755.809313 
L 622.099225 755.953712 
L 609.422329 755.990029 
L 596.745433 755.997704 
L 584.068536 755.997136 
L 571.39164 755.986441 
L 558.714744 755.936873 
L 546.037847 755.739924 
L 533.360951 755.054767 
L 520.684055 752.969644 
L 508.007158 747.430314 
L 495.330262 734.622726 
L 482.653366 708.961237 
L 469.976469 664.698983 
L 457.299573 599.681094 
L 444.622677 519.917628 
L 431.94578 441.491942 
L 419.268884 386.413449 
L 406.591988 372.895984 
L 393.915091 405.705422 
L 381.238195 473.468882 
L 368.561299 554.991082 
L 355.884402 629.851954 
L 343.207506 686.166808 
L 330.53061 721.899604 
L 317.853713 741.311646 
L 305.176817 750.419116 
L 292.499921 754.129538 
L 279.823024 755.447018 
L 267.146128 755.855792 
L 254.469232 755.966827 
L 241.792335 755.993269 
L 229.115439 755.998795 
L 216.438543 755.99981 
L 203.761646 755.999974 
L 191.08475 755.999997 
L 178.407854 756 
L 165.730957 756 
L 153.054061 756 
L 140.377165 756 
L 127.700268 756 
L 115.023372 756 
L 102.346476 756 
L 89.669579 756 
L 76.992683 756 
L 64.315787 756 
L 51.63889 756 
L 38.961994 756 
L 26.285098 756 
L 13.608201 756 
L 0.931305 756 
L -11.745591 756 
L -24.422488 756 
L -37.099384 756 
z
" style="fill:#7f7f7f;fill-opacity:0.25;"/>
   </g>
   <g id="PolyCollection_9">
    <path clip-path="url(#p452ea29c2b)" d="M -228 756 
L -228 756 
L -211.466667 756 
L -194.933333 756 
L -178.4 756 
L -161.866667 756 
L -145.333333 756 
L -128.8 756 
L -112.266667 756 
L -95.733333 756 
L -79.2 756 
L -62.666667 756 
L -46.133333 756 
L -29.6 756 
L -13.066667 756 
L 3.466667 756 
L 20 756 
L 36.533333 756 
L 53.066667 756 
L 69.6 756 
L 86.133333 756 
L 102.666667 756 
L 119.2 756 
L 135.733333 756 
L 152.266667 756 
L 168.8 756 
L 185.333333 756 
L 201.866667 756 
L 218.4 756 
L 234.933333 756 
L 251.466667 756 
L 268 756 
L 284.533333 756 
L 301.066667 756 
L 317.6 756 
L 334.133333 756 
L 350.666667 756 
L 367.2 756 
L 383.733333 756 
L 400.266667 756 
L 416.8 756 
L 433.333333 756 
L 449.866667 756 
L 466.4 756 
L 482.933333 756 
L 499.466667 756 
L 516 756 
L 532.533333 756 
L 549.066667 756 
L 565.6 756 
L 582.133333 756 
L 598.666667 756 
L 615.2 756 
L 631.733333 756 
L 648.266667 756 
L 664.8 756 
L 681.333333 756 
L 697.866667 756 
L 714.4 756 
L 730.933333 756 
L 747.466667 756 
L 764 756 
L 780.533333 756 
L 797.066667 756 
L 813.6 756 
L 830.133333 756 
L 846.666667 756 
L 863.2 756 
L 879.733333 756 
L 896.266667 756 
L 912.8 756 
L 929.333333 756 
L 945.866667 756 
L 962.4 756 
L 978.933333 756 
L 995.466667 756 
L 1012 756 
L 1028.533333 756 
L 1045.066667 756 
L 1061.6 756 
L 1078.133333 756 
L 1094.666667 756 
L 1111.2 756 
L 1127.733333 756 
L 1144.266667 756 
L 1160.8 756 
L 1177.333333 756 
L 1193.866667 756 
L 1210.4 756 
L 1226.933333 756 
L 1243.466667 756 
L 1260 756 
L 1276.533333 756 
L 1293.066667 756 
L 1309.6 756 
L 1326.133333 756 
L 1342.666667 756 
L 1359.2 756 
L 1375.733333 756 
L 1392.266667 756 
L 1408.8 756 
L 1408.8 756 
L 1408.8 756 
L 1392.266667 756 
L 1375.733333 755.999999 
L 1359.2 755.999994 
L 1342.666667 755.999975 
L 1326.133333 755.999905 
L 1309.6 755.999653 
L 1293.066667 755.998811 
L 1276.533333 755.996159 
L 1260 755.988312 
L 1243.466667 755.966505 
L 1226.933333 755.909596 
L 1210.4 755.770191 
L 1193.866667 755.449787 
L 1177.333333 754.759245 
L 1160.8 753.364626 
L 1144.266667 750.727587 
L 1127.733333 746.064257 
L 1111.2 738.362757 
L 1094.666667 726.506939 
L 1078.133333 709.538616 
L 1061.6 687.042981 
L 1045.066667 659.568538 
L 1028.533333 628.923513 
L 1012 598.170798 
L 995.466667 571.209586 
L 978.933333 551.980621 
L 962.4 543.506227 
L 945.866667 547.086527 
L 929.333333 561.948377 
L 912.8 585.479998 
L 896.266667 613.956607 
L 879.733333 643.48223 
L 863.2 670.823695 
L 846.666667 693.903091 
L 830.133333 711.881994 
L 813.6 724.925364 
L 797.066667 733.812369 
L 780.533333 739.554387 
L 764 743.118639 
L 747.466667 745.283801 
L 730.933333 746.60342 
L 714.4 747.433384 
L 697.866667 747.983682 
L 681.333333 748.369102 
L 664.8 748.647856 
L 648.266667 748.846849 
L 631.733333 748.976679 
L 615.2 749.04036 
L 598.666667 749.038702 
L 582.133333 748.973811 
L 565.6 748.850916 
L 549.066667 748.678233 
L 532.533333 748.464719 
L 516 748.216011 
L 499.466667 747.929163 
L 482.933333 747.586423 
L 466.4 747.147454 
L 449.866667 746.538417 
L 433.333333 745.636335 
L 416.8 744.249176 
L 400.266667 742.096838 
L 383.733333 738.805172 
L 367.2 733.931477 
L 350.666667 727.040485 
L 334.133333 717.839016 
L 317.6 706.352702 
L 301.066667 693.095284 
L 284.533333 679.155393 
L 268 666.127435 
L 251.466667 655.85476 
L 234.933333 650.02663 
L 218.4 649.744898 
L 201.866667 655.211091 
L 185.333333 665.653873 
L 168.8 679.5285 
L 152.266667 694.914926 
L 135.733333 709.970894 
L 119.2 723.292011 
L 102.666667 734.087422 
L 86.133333 742.162119 
L 69.6 747.763971 
L 53.066667 751.380585 
L 36.533333 753.558618 
L 20 754.784289 
L 3.466667 755.429647 
L -13.066667 755.747912 
L -29.6 755.895037 
L -46.133333 755.95883 
L -62.666667 755.984789 
L -79.2 755.994706 
L -95.733333 755.998264 
L -112.266667 755.999464 
L -128.8 755.999844 
L -145.333333 755.999957 
L -161.866667 755.999989 
L -178.4 755.999997 
L -194.933333 755.999999 
L -211.466667 756 
L -228 756 
z
" style="fill:#bcbd22;fill-opacity:0.25;"/>
   </g>
   <g id="matplotlib.axis_1">
    <g id="xtick_1">
     <g id="line2d_1">
      <defs>
       <path d="M 0 0 
L 0 3.5 
" id="m96c14d48fe" style="stroke:#000000;stroke-width:0.8;"/>
      </defs>
      <g>
       <use style="stroke:#000000;stroke-width:0.8;" x="218.4" xlink:href="#m96c14d48fe" y="756"/>
      </g>
     </g>
     <g id="text_1">
      <!-- 0.0 -->
      <defs>
       <path d="M 4.15625 35.296875 
Q 4.15625 48 6.765625 55.734375 
Q 9.375 63.484375 14.515625 67.671875 
Q 19.671875 71.875 27.484375 71.875 
Q 33.25 71.875 37.59375 69.546875 
Q 41.9375 67.234375 44.765625 62.859375 
Q 47.609375 58.5 49.21875 52.21875 
Q 50.828125 45.953125 50.828125 35.296875 
Q 50.828125 22.703125 48.234375 14.96875 
Q 45.65625 7.234375 40.5 3 
Q 35.359375 -1.21875 27.484375 -1.21875 
Q 17.140625 -1.21875 11.234375 6.203125 
Q 4.15625 15.140625 4.15625 35.296875 
z
M 13.1875 35.296875 
Q 13.1875 17.671875 17.3125 11.828125 
Q 21.4375 6 27.484375 6 
Q 33.546875 6 37.671875 11.859375 
Q 41.796875 17.71875 41.796875 35.296875 
Q 41.796875 52.984375 37.671875 58.78125 
Q 33.546875 64.59375 27.390625 64.59375 
Q 21.34375 64.59375 17.71875 59.46875 
Q 13.1875 52.9375 13.1875 35.296875 
z
" id="ArialMT-48"/>
       <path d="M 9.078125 0 
L 9.078125 10.015625 
L 19.09375 10.015625 
L 19.09375 0 
z
" id="ArialMT-46"/>
      </defs>
      <g transform="translate(211.45 770.157812)scale(0.1 -0.1)">
       <use xlink:href="#ArialMT-48"/>
       <use x="55.615234" xlink:href="#ArialMT-46"/>
       <use x="83.398438" xlink:href="#ArialMT-48"/>
      </g>
     </g>
    </g>
    <g id="xtick_2">
     <g id="line2d_2">
      <g>
       <use style="stroke:#000000;stroke-width:0.8;" x="367.2" xlink:href="#m96c14d48fe" y="756"/>
      </g>
     </g>
     <g id="text_2">
      <!-- 0.2 -->
      <defs>
       <path d="M 50.34375 8.453125 
L 50.34375 0 
L 3.03125 0 
Q 2.9375 3.171875 4.046875 6.109375 
Q 5.859375 10.9375 9.828125 15.625 
Q 13.8125 20.3125 21.34375 26.46875 
Q 33.015625 36.03125 37.109375 41.625 
Q 41.21875 47.21875 41.21875 52.203125 
Q 41.21875 57.421875 37.46875 61 
Q 33.734375 64.59375 27.734375 64.59375 
Q 21.390625 64.59375 17.578125 60.78125 
Q 13.765625 56.984375 13.71875 50.25 
L 4.6875 51.171875 
Q 5.609375 61.28125 11.65625 66.578125 
Q 17.71875 71.875 27.9375 71.875 
Q 38.234375 71.875 44.234375 66.15625 
Q 50.25 60.453125 50.25 52 
Q 50.25 47.703125 48.484375 43.546875 
Q 46.734375 39.40625 42.65625 34.8125 
Q 38.578125 30.21875 29.109375 22.21875 
Q 21.1875 15.578125 18.9375 13.203125 
Q 16.703125 10.84375 15.234375 8.453125 
z
" id="ArialMT-50"/>
      </defs>
      <g transform="translate(360.25 770.157812)scale(0.1 -0.1)">
       <use xlink:href="#ArialMT-48"/>
       <use x="55.615234" xlink:href="#ArialMT-46"/>
       <use x="83.398438" xlink:href="#ArialMT-50"/>
      </g>
     </g>
    </g>
    <g id="xtick_3">
     <g id="line2d_3">
      <g>
       <use style="stroke:#000000;stroke-width:0.8;" x="516" xlink:href="#m96c14d48fe" y="756"/>
      </g>
     </g>
     <g id="text_3">
      <!-- 0.4 -->
      <defs>
       <path d="M 32.328125 0 
L 32.328125 17.140625 
L 1.265625 17.140625 
L 1.265625 25.203125 
L 33.9375 71.578125 
L 41.109375 71.578125 
L 41.109375 25.203125 
L 50.78125 25.203125 
L 50.78125 17.140625 
L 41.109375 17.140625 
L 41.109375 0 
z
M 32.328125 25.203125 
L 32.328125 57.46875 
L 9.90625 25.203125 
z
" id="ArialMT-52"/>
      </defs>
      <g transform="translate(509.05 770.157812)scale(0.1 -0.1)">
       <use xlink:href="#ArialMT-48"/>
       <use x="55.615234" xlink:href="#ArialMT-46"/>
       <use x="83.398438" xlink:href="#ArialMT-52"/>
      </g>
     </g>
    </g>
    <g id="xtick_4">
     <g id="line2d_4">
      <g>
       <use style="stroke:#000000;stroke-width:0.8;" x="664.8" xlink:href="#m96c14d48fe" y="756"/>
      </g>
     </g>
     <g id="text_4">
      <!-- 0.6 -->
      <defs>
       <path d="M 49.75 54.046875 
L 41.015625 53.375 
Q 39.84375 58.546875 37.703125 60.890625 
Q 34.125 64.65625 28.90625 64.65625 
Q 24.703125 64.65625 21.53125 62.3125 
Q 17.390625 59.28125 14.984375 53.46875 
Q 12.59375 47.65625 12.5 36.921875 
Q 15.671875 41.75 20.265625 44.09375 
Q 24.859375 46.4375 29.890625 46.4375 
Q 38.671875 46.4375 44.84375 39.96875 
Q 51.03125 33.5 51.03125 23.25 
Q 51.03125 16.5 48.125 10.71875 
Q 45.21875 4.9375 40.140625 1.859375 
Q 35.0625 -1.21875 28.609375 -1.21875 
Q 17.625 -1.21875 10.6875 6.859375 
Q 3.765625 14.9375 3.765625 33.5 
Q 3.765625 54.25 11.421875 63.671875 
Q 18.109375 71.875 29.4375 71.875 
Q 37.890625 71.875 43.28125 67.140625 
Q 48.6875 62.40625 49.75 54.046875 
z
M 13.875 23.1875 
Q 13.875 18.65625 15.796875 14.5 
Q 17.71875 10.359375 21.1875 8.171875 
Q 24.65625 6 28.46875 6 
Q 34.03125 6 38.03125 10.484375 
Q 42.046875 14.984375 42.046875 22.703125 
Q 42.046875 30.125 38.078125 34.390625 
Q 34.125 38.671875 28.125 38.671875 
Q 22.171875 38.671875 18.015625 34.390625 
Q 13.875 30.125 13.875 23.1875 
z
" id="ArialMT-54"/>
      </defs>
      <g transform="translate(657.85 770.157812)scale(0.1 -0.1)">
       <use xlink:href="#ArialMT-48"/>
       <use x="55.615234" xlink:href="#ArialMT-46"/>
       <use x="83.398438" xlink:href="#ArialMT-54"/>
      </g>
     </g>
    </g>
    <g id="xtick_5">
     <g id="line2d_5">
      <g>
       <use style="stroke:#000000;stroke-width:0.8;" x="813.6" xlink:href="#m96c14d48fe" y="756"/>
      </g>
     </g>
     <g id="text_5">
      <!-- 0.8 -->
      <defs>
       <path d="M 17.671875 38.8125 
Q 12.203125 40.828125 9.5625 44.53125 
Q 6.9375 48.25 6.9375 53.421875 
Q 6.9375 61.234375 12.546875 66.546875 
Q 18.171875 71.875 27.484375 71.875 
Q 36.859375 71.875 42.578125 66.421875 
Q 48.296875 60.984375 48.296875 53.171875 
Q 48.296875 48.1875 45.671875 44.5 
Q 43.0625 40.828125 37.75 38.8125 
Q 44.34375 36.671875 47.78125 31.875 
Q 51.21875 27.09375 51.21875 20.453125 
Q 51.21875 11.28125 44.71875 5.03125 
Q 38.234375 -1.21875 27.640625 -1.21875 
Q 17.046875 -1.21875 10.546875 5.046875 
Q 4.046875 11.328125 4.046875 20.703125 
Q 4.046875 27.6875 7.59375 32.390625 
Q 11.140625 37.109375 17.671875 38.8125 
z
M 15.921875 53.71875 
Q 15.921875 48.640625 19.1875 45.40625 
Q 22.46875 42.1875 27.6875 42.1875 
Q 32.765625 42.1875 36.015625 45.375 
Q 39.265625 48.578125 39.265625 53.21875 
Q 39.265625 58.0625 35.90625 61.359375 
Q 32.5625 64.65625 27.59375 64.65625 
Q 22.5625 64.65625 19.234375 61.421875 
Q 15.921875 58.203125 15.921875 53.71875 
z
M 13.09375 20.65625 
Q 13.09375 16.890625 14.875 13.375 
Q 16.65625 9.859375 20.171875 7.921875 
Q 23.6875 6 27.734375 6 
Q 34.03125 6 38.125 10.046875 
Q 42.234375 14.109375 42.234375 20.359375 
Q 42.234375 26.703125 38.015625 30.859375 
Q 33.796875 35.015625 27.4375 35.015625 
Q 21.234375 35.015625 17.15625 30.90625 
Q 13.09375 26.8125 13.09375 20.65625 
z
" id="ArialMT-56"/>
      </defs>
      <g transform="translate(806.65 770.157812)scale(0.1 -0.1)">
       <use xlink:href="#ArialMT-48"/>
       <use x="55.615234" xlink:href="#ArialMT-46"/>
       <use x="83.398438" xlink:href="#ArialMT-56"/>
      </g>
     </g>
    </g>
    <g id="xtick_6">
     <g id="line2d_6">
      <g>
       <use style="stroke:#000000;stroke-width:0.8;" x="962.4" xlink:href="#m96c14d48fe" y="756"/>
      </g>
     </g>
     <g id="text_6">
      <!-- 1.0 -->
      <defs>
       <path d="M 37.25 0 
L 28.46875 0 
L 28.46875 56 
Q 25.296875 52.984375 20.140625 49.953125 
Q 14.984375 46.921875 10.890625 45.40625 
L 10.890625 53.90625 
Q 18.265625 57.375 23.78125 62.296875 
Q 29.296875 67.234375 31.59375 71.875 
L 37.25 71.875 
z
" id="ArialMT-49"/>
      </defs>
      <g transform="translate(955.45 770.157812)scale(0.1 -0.1)">
       <use xlink:href="#ArialMT-49"/>
       <use x="55.615234" xlink:href="#ArialMT-46"/>
       <use x="83.398438" xlink:href="#ArialMT-48"/>
      </g>
     </g>
    </g>
    <g id="text_7">
     <!-- verification score -->
     <defs>
      <path d="M 21 0 
L 1.265625 51.859375 
L 10.546875 51.859375 
L 21.6875 20.796875 
Q 23.484375 15.765625 25 10.359375 
Q 26.171875 14.453125 28.265625 20.21875 
L 39.796875 51.859375 
L 48.828125 51.859375 
L 29.203125 0 
z
" id="ArialMT-118"/>
      <path d="M 42.09375 16.703125 
L 51.171875 15.578125 
Q 49.03125 7.625 43.21875 3.21875 
Q 37.40625 -1.171875 28.375 -1.171875 
Q 17 -1.171875 10.328125 5.828125 
Q 3.65625 12.84375 3.65625 25.484375 
Q 3.65625 38.578125 10.390625 45.796875 
Q 17.140625 53.03125 27.875 53.03125 
Q 38.28125 53.03125 44.875 45.953125 
Q 51.46875 38.875 51.46875 26.03125 
Q 51.46875 25.25 51.421875 23.6875 
L 12.75 23.6875 
Q 13.234375 15.140625 17.578125 10.59375 
Q 21.921875 6.0625 28.421875 6.0625 
Q 33.25 6.0625 36.671875 8.59375 
Q 40.09375 11.140625 42.09375 16.703125 
z
M 13.234375 30.90625 
L 42.1875 30.90625 
Q 41.609375 37.453125 38.875 40.71875 
Q 34.671875 45.796875 27.984375 45.796875 
Q 21.921875 45.796875 17.796875 41.75 
Q 13.671875 37.703125 13.234375 30.90625 
z
" id="ArialMT-101"/>
      <path d="M 6.5 0 
L 6.5 51.859375 
L 14.40625 51.859375 
L 14.40625 44 
Q 17.4375 49.515625 20 51.265625 
Q 22.5625 53.03125 25.640625 53.03125 
Q 30.078125 53.03125 34.671875 50.203125 
L 31.640625 42.046875 
Q 28.421875 43.953125 25.203125 43.953125 
Q 22.3125 43.953125 20.015625 42.21875 
Q 17.71875 40.484375 16.75 37.40625 
Q 15.28125 32.71875 15.28125 27.15625 
L 15.28125 0 
z
" id="ArialMT-114"/>
      <path d="M 6.640625 61.46875 
L 6.640625 71.578125 
L 15.4375 71.578125 
L 15.4375 61.46875 
z
M 6.640625 0 
L 6.640625 51.859375 
L 15.4375 51.859375 
L 15.4375 0 
z
" id="ArialMT-105"/>
      <path d="M 8.6875 0 
L 8.6875 45.015625 
L 0.921875 45.015625 
L 0.921875 51.859375 
L 8.6875 51.859375 
L 8.6875 57.375 
Q 8.6875 62.59375 9.625 65.140625 
Q 10.890625 68.5625 14.078125 70.671875 
Q 17.28125 72.796875 23.046875 72.796875 
Q 26.765625 72.796875 31.25 71.921875 
L 29.9375 64.265625 
Q 27.203125 64.75 24.75 64.75 
Q 20.75 64.75 19.09375 63.03125 
Q 17.4375 61.328125 17.4375 56.640625 
L 17.4375 51.859375 
L 27.546875 51.859375 
L 27.546875 45.015625 
L 17.4375 45.015625 
L 17.4375 0 
z
" id="ArialMT-102"/>
      <path d="M 40.4375 19 
L 49.078125 17.875 
Q 47.65625 8.9375 41.8125 3.875 
Q 35.984375 -1.171875 27.484375 -1.171875 
Q 16.84375 -1.171875 10.375 5.78125 
Q 3.90625 12.75 3.90625 25.734375 
Q 3.90625 34.125 6.6875 40.421875 
Q 9.46875 46.734375 15.15625 49.875 
Q 20.84375 53.03125 27.546875 53.03125 
Q 35.984375 53.03125 41.359375 48.75 
Q 46.734375 44.484375 48.25 36.625 
L 39.703125 35.296875 
Q 38.484375 40.53125 35.375 43.15625 
Q 32.28125 45.796875 27.875 45.796875 
Q 21.234375 45.796875 17.078125 41.03125 
Q 12.9375 36.28125 12.9375 25.984375 
Q 12.9375 15.53125 16.9375 10.796875 
Q 20.953125 6.0625 27.390625 6.0625 
Q 32.5625 6.0625 36.03125 9.234375 
Q 39.5 12.40625 40.4375 19 
z
" id="ArialMT-99"/>
      <path d="M 40.4375 6.390625 
Q 35.546875 2.25 31.03125 0.53125 
Q 26.515625 -1.171875 21.34375 -1.171875 
Q 12.796875 -1.171875 8.203125 3 
Q 3.609375 7.171875 3.609375 13.671875 
Q 3.609375 17.484375 5.34375 20.625 
Q 7.078125 23.78125 9.890625 25.6875 
Q 12.703125 27.59375 16.21875 28.5625 
Q 18.796875 29.25 24.03125 29.890625 
Q 34.671875 31.15625 39.703125 32.90625 
Q 39.75 34.71875 39.75 35.203125 
Q 39.75 40.578125 37.25 42.78125 
Q 33.890625 45.75 27.25 45.75 
Q 21.046875 45.75 18.09375 43.578125 
Q 15.140625 41.40625 13.71875 35.890625 
L 5.125 37.0625 
Q 6.296875 42.578125 8.984375 45.96875 
Q 11.671875 49.359375 16.75 51.1875 
Q 21.828125 53.03125 28.515625 53.03125 
Q 35.15625 53.03125 39.296875 51.46875 
Q 43.453125 49.90625 45.40625 47.53125 
Q 47.359375 45.171875 48.140625 41.546875 
Q 48.578125 39.3125 48.578125 33.453125 
L 48.578125 21.734375 
Q 48.578125 9.46875 49.140625 6.21875 
Q 49.703125 2.984375 51.375 0 
L 42.1875 0 
Q 40.828125 2.734375 40.4375 6.390625 
z
M 39.703125 26.03125 
Q 34.90625 24.078125 25.34375 22.703125 
Q 19.921875 21.921875 17.671875 20.9375 
Q 15.4375 19.96875 14.203125 18.09375 
Q 12.984375 16.21875 12.984375 13.921875 
Q 12.984375 10.40625 15.640625 8.0625 
Q 18.3125 5.71875 23.4375 5.71875 
Q 28.515625 5.71875 32.46875 7.9375 
Q 36.421875 10.15625 38.28125 14.015625 
Q 39.703125 17 39.703125 22.796875 
z
" id="ArialMT-97"/>
      <path d="M 25.78125 7.859375 
L 27.046875 0.09375 
Q 23.34375 -0.6875 20.40625 -0.6875 
Q 15.625 -0.6875 12.984375 0.828125 
Q 10.359375 2.34375 9.28125 4.8125 
Q 8.203125 7.28125 8.203125 15.1875 
L 8.203125 45.015625 
L 1.765625 45.015625 
L 1.765625 51.859375 
L 8.203125 51.859375 
L 8.203125 64.703125 
L 16.9375 69.96875 
L 16.9375 51.859375 
L 25.78125 51.859375 
L 25.78125 45.015625 
L 16.9375 45.015625 
L 16.9375 14.703125 
Q 16.9375 10.9375 17.40625 9.859375 
Q 17.875 8.796875 18.921875 8.15625 
Q 19.96875 7.515625 21.921875 7.515625 
Q 23.390625 7.515625 25.78125 7.859375 
z
" id="ArialMT-116"/>
      <path d="M 3.328125 25.921875 
Q 3.328125 40.328125 11.328125 47.265625 
Q 18.015625 53.03125 27.640625 53.03125 
Q 38.328125 53.03125 45.109375 46.015625 
Q 51.90625 39.015625 51.90625 26.65625 
Q 51.90625 16.65625 48.90625 10.90625 
Q 45.90625 5.171875 40.15625 2 
Q 34.421875 -1.171875 27.640625 -1.171875 
Q 16.75 -1.171875 10.03125 5.8125 
Q 3.328125 12.796875 3.328125 25.921875 
z
M 12.359375 25.921875 
Q 12.359375 15.96875 16.703125 11.015625 
Q 21.046875 6.0625 27.640625 6.0625 
Q 34.1875 6.0625 38.53125 11.03125 
Q 42.875 16.015625 42.875 26.21875 
Q 42.875 35.84375 38.5 40.796875 
Q 34.125 45.75 27.640625 45.75 
Q 21.046875 45.75 16.703125 40.8125 
Q 12.359375 35.890625 12.359375 25.921875 
z
" id="ArialMT-111"/>
      <path d="M 6.59375 0 
L 6.59375 51.859375 
L 14.5 51.859375 
L 14.5 44.484375 
Q 20.21875 53.03125 31 53.03125 
Q 35.6875 53.03125 39.625 51.34375 
Q 43.5625 49.65625 45.515625 46.921875 
Q 47.46875 44.1875 48.25 40.4375 
Q 48.734375 37.984375 48.734375 31.890625 
L 48.734375 0 
L 39.9375 0 
L 39.9375 31.546875 
Q 39.9375 36.921875 38.90625 39.578125 
Q 37.890625 42.234375 35.28125 43.8125 
Q 32.671875 45.40625 29.15625 45.40625 
Q 23.53125 45.40625 19.453125 41.84375 
Q 15.375 38.28125 15.375 28.328125 
L 15.375 0 
z
" id="ArialMT-110"/>
      <path id="ArialMT-32"/>
      <path d="M 3.078125 15.484375 
L 11.765625 16.84375 
Q 12.5 11.625 15.84375 8.84375 
Q 19.1875 6.0625 25.203125 6.0625 
Q 31.25 6.0625 34.171875 8.515625 
Q 37.109375 10.984375 37.109375 14.3125 
Q 37.109375 17.28125 34.515625 19 
Q 32.71875 20.171875 25.53125 21.96875 
Q 15.875 24.421875 12.140625 26.203125 
Q 8.40625 27.984375 6.46875 31.125 
Q 4.546875 34.28125 4.546875 38.09375 
Q 4.546875 41.546875 6.125 44.5 
Q 7.71875 47.46875 10.453125 49.421875 
Q 12.5 50.921875 16.03125 51.96875 
Q 19.578125 53.03125 23.640625 53.03125 
Q 29.734375 53.03125 34.34375 51.265625 
Q 38.96875 49.515625 41.15625 46.5 
Q 43.359375 43.5 44.1875 38.484375 
L 35.59375 37.3125 
Q 35.015625 41.3125 32.203125 43.546875 
Q 29.390625 45.796875 24.265625 45.796875 
Q 18.21875 45.796875 15.625 43.796875 
Q 13.03125 41.796875 13.03125 39.109375 
Q 13.03125 37.40625 14.109375 36.03125 
Q 15.1875 34.625 17.484375 33.6875 
Q 18.796875 33.203125 25.25 31.453125 
Q 34.578125 28.953125 38.25 27.359375 
Q 41.9375 25.78125 44.03125 22.75 
Q 46.140625 19.734375 46.140625 15.234375 
Q 46.140625 10.84375 43.578125 6.953125 
Q 41.015625 3.078125 36.171875 0.953125 
Q 31.34375 -1.171875 25.25 -1.171875 
Q 15.140625 -1.171875 9.84375 3.03125 
Q 4.546875 7.234375 3.078125 15.484375 
z
" id="ArialMT-115"/>
     </defs>
     <g transform="translate(552.8875 783.303125)scale(0.1 -0.1)">
      <use xlink:href="#ArialMT-118"/>
      <use x="50" xlink:href="#ArialMT-101"/>
      <use x="105.615234" xlink:href="#ArialMT-114"/>
      <use x="138.916016" xlink:href="#ArialMT-105"/>
      <use x="161.132812" xlink:href="#ArialMT-102"/>
      <use x="188.916016" xlink:href="#ArialMT-105"/>
      <use x="211.132812" xlink:href="#ArialMT-99"/>
      <use x="261.132812" xlink:href="#ArialMT-97"/>
      <use x="316.748047" xlink:href="#ArialMT-116"/>
      <use x="344.53125" xlink:href="#ArialMT-105"/>
      <use x="366.748047" xlink:href="#ArialMT-111"/>
      <use x="422.363281" xlink:href="#ArialMT-110"/>
      <use x="477.978516" xlink:href="#ArialMT-32"/>
      <use x="505.761719" xlink:href="#ArialMT-115"/>
      <use x="555.761719" xlink:href="#ArialMT-99"/>
      <use x="605.761719" xlink:href="#ArialMT-111"/>
      <use x="661.376953" xlink:href="#ArialMT-114"/>
      <use x="694.677734" xlink:href="#ArialMT-101"/>
     </g>
    </g>
   </g>
   <g id="matplotlib.axis_2">
    <g id="ytick_1">
     <g id="line2d_7">
      <defs>
       <path d="M 0 0 
L -3.5 0 
" id="m4071067a60" style="stroke:#000000;stroke-width:0.8;"/>
      </defs>
      <g>
       <use style="stroke:#000000;stroke-width:0.8;" x="144" xlink:href="#m4071067a60" y="756"/>
      </g>
     </g>
     <g id="text_8">
      <!-- 0 -->
      <g transform="translate(131.439063 759.578906)scale(0.1 -0.1)">
       <use xlink:href="#ArialMT-48"/>
      </g>
     </g>
    </g>
    <g id="ytick_2">
     <g id="line2d_8">
      <g>
       <use style="stroke:#000000;stroke-width:0.8;" x="144" xlink:href="#m4071067a60" y="675.70355"/>
      </g>
     </g>
     <g id="text_9">
      <!-- 1 -->
      <g transform="translate(131.439063 679.282457)scale(0.1 -0.1)">
       <use xlink:href="#ArialMT-49"/>
      </g>
     </g>
    </g>
    <g id="ytick_3">
     <g id="line2d_9">
      <g>
       <use style="stroke:#000000;stroke-width:0.8;" x="144" xlink:href="#m4071067a60" y="595.407101"/>
      </g>
     </g>
     <g id="text_10">
      <!-- 2 -->
      <g transform="translate(131.439063 598.986007)scale(0.1 -0.1)">
       <use xlink:href="#ArialMT-50"/>
      </g>
     </g>
    </g>
    <g id="ytick_4">
     <g id="line2d_10">
      <g>
       <use style="stroke:#000000;stroke-width:0.8;" x="144" xlink:href="#m4071067a60" y="515.110651"/>
      </g>
     </g>
     <g id="text_11">
      <!-- 3 -->
      <defs>
       <path d="M 4.203125 18.890625 
L 12.984375 20.0625 
Q 14.5 12.59375 18.140625 9.296875 
Q 21.78125 6 27 6 
Q 33.203125 6 37.46875 10.296875 
Q 41.75 14.59375 41.75 20.953125 
Q 41.75 27 37.796875 30.921875 
Q 33.84375 34.859375 27.734375 34.859375 
Q 25.25 34.859375 21.53125 33.890625 
L 22.515625 41.609375 
Q 23.390625 41.5 23.921875 41.5 
Q 29.546875 41.5 34.03125 44.421875 
Q 38.53125 47.359375 38.53125 53.46875 
Q 38.53125 58.296875 35.25 61.46875 
Q 31.984375 64.65625 26.8125 64.65625 
Q 21.6875 64.65625 18.265625 61.421875 
Q 14.84375 58.203125 13.875 51.765625 
L 5.078125 53.328125 
Q 6.6875 62.15625 12.390625 67.015625 
Q 18.109375 71.875 26.609375 71.875 
Q 32.46875 71.875 37.390625 69.359375 
Q 42.328125 66.84375 44.9375 62.5 
Q 47.5625 58.15625 47.5625 53.265625 
Q 47.5625 48.640625 45.0625 44.828125 
Q 42.578125 41.015625 37.703125 38.765625 
Q 44.046875 37.3125 47.5625 32.6875 
Q 51.078125 28.078125 51.078125 21.140625 
Q 51.078125 11.765625 44.234375 5.25 
Q 37.40625 -1.265625 26.953125 -1.265625 
Q 17.53125 -1.265625 11.296875 4.34375 
Q 5.078125 9.96875 4.203125 18.890625 
z
" id="ArialMT-51"/>
      </defs>
      <g transform="translate(131.439063 518.689558)scale(0.1 -0.1)">
       <use xlink:href="#ArialMT-51"/>
      </g>
     </g>
    </g>
    <g id="ytick_5">
     <g id="line2d_11">
      <g>
       <use style="stroke:#000000;stroke-width:0.8;" x="144" xlink:href="#m4071067a60" y="434.814202"/>
      </g>
     </g>
     <g id="text_12">
      <!-- 4 -->
      <g transform="translate(131.439063 438.393108)scale(0.1 -0.1)">
       <use xlink:href="#ArialMT-52"/>
      </g>
     </g>
    </g>
    <g id="ytick_6">
     <g id="line2d_12">
      <g>
       <use style="stroke:#000000;stroke-width:0.8;" x="144" xlink:href="#m4071067a60" y="354.517752"/>
      </g>
     </g>
     <g id="text_13">
      <!-- 5 -->
      <defs>
       <path d="M 4.15625 18.75 
L 13.375 19.53125 
Q 14.40625 12.796875 18.140625 9.390625 
Q 21.875 6 27.15625 6 
Q 33.5 6 37.890625 10.78125 
Q 42.28125 15.578125 42.28125 23.484375 
Q 42.28125 31 38.0625 35.34375 
Q 33.84375 39.703125 27 39.703125 
Q 22.75 39.703125 19.328125 37.765625 
Q 15.921875 35.84375 13.96875 32.765625 
L 5.71875 33.84375 
L 12.640625 70.609375 
L 48.25 70.609375 
L 48.25 62.203125 
L 19.671875 62.203125 
L 15.828125 42.96875 
Q 22.265625 47.46875 29.34375 47.46875 
Q 38.71875 47.46875 45.15625 40.96875 
Q 51.609375 34.46875 51.609375 24.265625 
Q 51.609375 14.546875 45.953125 7.46875 
Q 39.0625 -1.21875 27.15625 -1.21875 
Q 17.390625 -1.21875 11.203125 4.25 
Q 5.03125 9.71875 4.15625 18.75 
z
" id="ArialMT-53"/>
      </defs>
      <g transform="translate(131.439063 358.096659)scale(0.1 -0.1)">
       <use xlink:href="#ArialMT-53"/>
      </g>
     </g>
    </g>
    <g id="ytick_7">
     <g id="line2d_13">
      <g>
       <use style="stroke:#000000;stroke-width:0.8;" x="144" xlink:href="#m4071067a60" y="274.221303"/>
      </g>
     </g>
     <g id="text_14">
      <!-- 6 -->
      <g transform="translate(131.439063 277.800209)scale(0.1 -0.1)">
       <use xlink:href="#ArialMT-54"/>
      </g>
     </g>
    </g>
    <g id="ytick_8">
     <g id="line2d_14">
      <g>
       <use style="stroke:#000000;stroke-width:0.8;" x="144" xlink:href="#m4071067a60" y="193.924853"/>
      </g>
     </g>
     <g id="text_15">
      <!-- 7 -->
      <defs>
       <path d="M 4.734375 62.203125 
L 4.734375 70.65625 
L 51.078125 70.65625 
L 51.078125 63.8125 
Q 44.234375 56.546875 37.515625 44.484375 
Q 30.8125 32.421875 27.15625 19.671875 
Q 24.515625 10.6875 23.78125 0 
L 14.75 0 
Q 14.890625 8.453125 18.0625 20.40625 
Q 21.234375 32.375 27.171875 43.484375 
Q 33.109375 54.59375 39.796875 62.203125 
z
" id="ArialMT-55"/>
      </defs>
      <g transform="translate(131.439063 197.50376)scale(0.1 -0.1)">
       <use xlink:href="#ArialMT-55"/>
      </g>
     </g>
    </g>
    <g id="ytick_9">
     <g id="line2d_15">
      <g>
       <use style="stroke:#000000;stroke-width:0.8;" x="144" xlink:href="#m4071067a60" y="113.628404"/>
      </g>
     </g>
     <g id="text_16">
      <!-- 8 -->
      <g transform="translate(131.439063 117.20731)scale(0.1 -0.1)">
       <use xlink:href="#ArialMT-56"/>
      </g>
     </g>
    </g>
    <g id="text_17">
     <!-- density -->
     <defs>
      <path d="M 40.234375 0 
L 40.234375 6.546875 
Q 35.296875 -1.171875 25.734375 -1.171875 
Q 19.53125 -1.171875 14.328125 2.25 
Q 9.125 5.671875 6.265625 11.796875 
Q 3.421875 17.921875 3.421875 25.875 
Q 3.421875 33.640625 6 39.96875 
Q 8.59375 46.296875 13.765625 49.65625 
Q 18.953125 53.03125 25.34375 53.03125 
Q 30.03125 53.03125 33.6875 51.046875 
Q 37.359375 49.078125 39.65625 45.90625 
L 39.65625 71.578125 
L 48.390625 71.578125 
L 48.390625 0 
z
M 12.453125 25.875 
Q 12.453125 15.921875 16.640625 10.984375 
Q 20.84375 6.0625 26.5625 6.0625 
Q 32.328125 6.0625 36.34375 10.765625 
Q 40.375 15.484375 40.375 25.140625 
Q 40.375 35.796875 36.265625 40.765625 
Q 32.171875 45.75 26.171875 45.75 
Q 20.3125 45.75 16.375 40.96875 
Q 12.453125 36.1875 12.453125 25.875 
z
" id="ArialMT-100"/>
      <path d="M 6.203125 -19.96875 
L 5.21875 -11.71875 
Q 8.109375 -12.5 10.25 -12.5 
Q 13.1875 -12.5 14.9375 -11.515625 
Q 16.703125 -10.546875 17.828125 -8.796875 
Q 18.65625 -7.46875 20.515625 -2.25 
Q 20.75 -1.515625 21.296875 -0.09375 
L 1.609375 51.859375 
L 11.078125 51.859375 
L 21.875 21.828125 
Q 23.96875 16.109375 25.640625 9.8125 
Q 27.15625 15.875 29.25 21.625 
L 40.328125 51.859375 
L 49.125 51.859375 
L 29.390625 -0.875 
Q 26.21875 -9.421875 24.46875 -12.640625 
Q 22.125 -17 19.09375 -19.015625 
Q 16.0625 -21.046875 11.859375 -21.046875 
Q 9.328125 -21.046875 6.203125 -19.96875 
z
" id="ArialMT-121"/>
     </defs>
     <g transform="translate(125.334375 445.681406)rotate(-90)scale(0.1 -0.1)">
      <use xlink:href="#ArialMT-100"/>
      <use x="55.615234" xlink:href="#ArialMT-101"/>
      <use x="111.230469" xlink:href="#ArialMT-110"/>
      <use x="166.845703" xlink:href="#ArialMT-115"/>
      <use x="216.845703" xlink:href="#ArialMT-105"/>
      <use x="239.0625" xlink:href="#ArialMT-116"/>
      <use x="266.845703" xlink:href="#ArialMT-121"/>
     </g>
    </g>
   </g>
   <g id="line2d_16">
    <path clip-path="url(#p452ea29c2b)" d="M -1 755.978467 
L 3.466667 755.97353 
L 20 755.921302 
L 36.533333 755.784595 
L 53.066667 755.457066 
L 69.6 754.739374 
L 86.133333 753.302546 
L 102.666667 750.678042 
L 119.2 746.312447 
L 135.733333 739.717185 
L 152.266667 730.70345 
L 168.8 719.626651 
L 185.333333 707.510552 
L 201.866667 695.931066 
L 218.4 686.637279 
L 234.933333 681.032372 
L 251.466667 679.737128 
L 268 682.435667 
L 284.533333 688.061119 
L 301.066667 695.2086 
L 317.6 702.571513 
L 334.133333 709.228563 
L 350.666667 714.720068 
L 367.2 718.960951 
L 383.733333 722.087012 
L 400.266667 724.317041 
L 416.8 725.868661 
L 433.333333 726.925379 
L 449.866667 727.632903 
L 466.4 728.103151 
L 482.933333 728.414957 
L 499.466667 728.611925 
L 516 728.704009 
L 532.533333 728.678257 
L 549.066667 728.517694 
L 565.6 728.220339 
L 582.133333 727.808063 
L 598.666667 727.319432 
L 615.2 726.789458 
L 631.733333 726.226709 
L 648.266667 725.599672 
L 664.8 724.83891 
L 681.333333 723.852859 
L 697.866667 722.548112 
L 714.4 720.842891 
L 730.933333 718.664476 
L 747.466667 715.925152 
L 764 712.475128 
L 780.533333 708.036577 
L 797.066667 702.135012 
L 813.6 694.065353 
L 830.133333 682.954773 
L 846.666667 667.992072 
L 863.2 648.852615 
L 879.733333 626.238561 
L 896.266667 602.305542 
L 912.8 580.656368 
L 929.333333 565.670718 
L 945.866667 561.243826 
L 962.4 569.39066 
L 978.933333 589.37209 
L 995.466667 617.820116 
L 1012 649.842043 
L 1028.533333 680.579345 
L 1045.066667 706.514079 
L 1061.6 726.043254 
L 1078.133333 739.281373 
L 1094.666667 747.403018 
L 1111.2 751.928707 
L 1127.733333 754.224984 
L 1144.266667 755.287755 
L 1153 755.525072 
" style="fill:none;stroke:#1f77b4;stroke-linecap:square;stroke-width:1.5;"/>
   </g>
   <g id="line2d_17">
    <path clip-path="url(#p452ea29c2b)" d="M -1 755.789834 
L 3.246832 755.750535 
L 19.764463 755.398679 
L 36.282094 754.646706 
L 52.799725 753.156083 
L 69.317356 750.418623 
L 85.834987 745.768458 
L 102.352617 738.476911 
L 118.870248 727.954071 
L 135.387879 714.036429 
L 151.90551 697.27556 
L 168.423141 679.091517 
L 184.940772 661.66026 
L 201.458403 647.490863 
L 217.976033 638.790432 
L 234.493664 636.83946 
L 251.011295 641.627428 
L 267.528926 651.898009 
L 284.046557 665.573861 
L 300.564188 680.372135 
L 317.081819 694.367304 
L 333.59945 706.323137 
L 350.11708 715.746078 
L 366.634711 722.728577 
L 383.152342 727.701813 
L 399.669973 731.20096 
L 416.187604 733.696585 
L 432.705235 735.500849 
L 449.222866 736.736728 
L 465.740496 737.359159 
L 482.258127 737.223309 
L 498.775758 736.191918 
L 515.293389 734.257421 
L 531.81102 731.634999 
L 548.328651 728.777498 
L 564.846282 726.285199 
L 581.363913 724.729269 
L 597.881543 724.455067 
L 614.399174 725.451027 
L 630.916805 727.344134 
L 647.434436 729.524409 
L 663.952067 731.340601 
L 680.469698 732.280907 
L 696.987329 732.068816 
L 713.50496 730.650647 
L 730.02259 728.099218 
L 746.540221 724.484119 
L 763.057852 719.75859 
L 779.575483 713.697653 
L 796.093114 705.907377 
L 812.610745 695.917417 
L 829.128376 683.361243 
L 845.646006 668.227128 
L 862.163637 651.121924 
L 878.681268 633.443015 
L 895.198899 617.335698 
L 911.71653 605.357957 
L 928.234161 599.887282 
L 944.751792 602.441066 
L 961.269423 613.165659 
L 977.787053 630.71523 
L 994.304684 652.589785 
L 1010.822315 675.80602 
L 1027.339946 697.640848 
L 1043.857577 716.18383 
L 1060.375208 730.550731 
L 1076.892839 740.769862 
L 1093.41047 747.470143 
L 1109.9281 751.530866 
L 1126.445731 753.810162 
L 1142.963362 754.996785 
L 1153 755.345326 
" style="fill:none;stroke:#ff7f0e;stroke-linecap:square;stroke-width:1.5;"/>
   </g>
   <g id="line2d_18">
    <path clip-path="url(#p452ea29c2b)" d="M -1 756 
L 14.134424 756 
L 30.542255 756 
L 46.950085 756 
L 63.357915 755.999999 
L 79.765745 755.999985 
L 96.173576 755.999854 
L 112.581406 755.998891 
L 128.989236 755.993197 
L 145.397067 755.966116 
L 161.804897 755.861938 
L 178.212727 755.535026 
L 194.620558 754.687978 
L 211.028388 752.845953 
L 227.436218 749.416655 
L 243.844048 743.835822 
L 260.251879 735.749639 
L 276.659709 725.1742 
L 293.067539 712.55717 
L 309.47537 698.66742 
L 325.8832 684.336325 
L 342.29103 670.208365 
L 358.698861 656.668557 
L 375.106691 643.977287 
L 391.514521 632.482046 
L 407.922352 622.715222 
L 424.330182 615.262069 
L 440.738012 610.438476 
L 457.145842 607.99628 
L 473.553673 607.17848 
L 489.961503 607.256163 
L 506.369333 608.163706 
L 522.777164 610.550191 
L 539.184994 615.057125 
L 555.592824 621.53244 
L 572.000655 629.058339 
L 588.408485 636.719934 
L 604.816315 644.171902 
L 621.224145 651.497754 
L 637.631976 658.836386 
L 654.039806 666.254132 
L 670.447636 673.700421 
L 686.855467 680.884443 
L 703.263297 687.341768 
L 719.671127 692.818479 
L 736.078958 697.561669 
L 752.486788 702.10387 
L 768.894618 706.749562 
L 785.302448 711.348665 
L 801.710279 715.556087 
L 818.118109 719.201288 
L 834.525939 722.381223 
L 850.93377 725.272576 
L 867.3416 727.856978 
L 883.74943 729.715971 
L 900.157261 730.066495 
L 916.565091 728.330102 
L 932.972921 725.237454 
L 949.380752 723.350006 
L 965.788582 725.533036 
L 982.196412 732.272602 
L 998.604242 740.999972 
L 1015.012073 748.410409 
L 1031.419903 752.948882 
L 1047.827733 755.029247 
L 1064.235564 755.756104 
L 1080.643394 755.951675 
L 1097.051224 755.992455 
L 1113.459055 755.999072 
L 1129.866885 755.99991 
L 1146.274715 755.999993 
L 1153 755.999996 
" style="fill:none;stroke:#2ca02c;stroke-linecap:square;stroke-width:1.5;"/>
   </g>
   <g id="line2d_19">
    <path clip-path="url(#p452ea29c2b)" d="M -1 753.985046 
L 3.466667 753.679454 
L 20 751.691244 
L 36.533333 748.386004 
L 53.066667 743.19521 
L 69.6 735.505783 
L 86.133333 724.783136 
L 102.666667 710.747113 
L 119.2 693.568702 
L 135.733333 674.029516 
L 152.266667 653.573648 
L 168.8 634.195039 
L 185.333333 618.146653 
L 201.866667 607.519741 
L 218.4 603.798412 
L 234.933333 607.519741 
L 251.466667 618.146653 
L 268 634.195039 
L 284.533333 653.573648 
L 301.066667 674.029516 
L 317.6 693.568702 
L 334.133333 710.747113 
L 350.666667 724.783136 
L 367.2 735.505783 
L 383.733333 743.19521 
L 400.266667 748.386004 
L 416.8 751.691244 
L 433.333333 753.679454 
L 449.866667 754.810601 
L 466.4 755.419818 
L 482.933333 755.730661 
L 499.466667 755.881003 
L 516 755.949963 
L 532.533333 755.979969 
L 549.066667 755.992343 
L 565.6 755.997128 
L 582.133333 755.9987 
L 598.666667 755.998632 
L 615.2 755.996842 
L 631.733333 755.991528 
L 648.266667 755.977821 
L 664.8 755.944592 
L 681.333333 755.868229 
L 697.866667 755.701748 
L 714.4 755.357537 
L 730.933333 754.682921 
L 747.466667 753.430348 
L 764 751.228708 
L 780.533333 747.568657 
L 797.066667 741.820642 
L 813.6 733.30577 
L 830.133333 721.432069 
L 846.666667 705.889308 
L 863.2 686.86683 
L 879.733333 665.230151 
L 896.266667 642.578387 
L 912.8 621.119525 
L 929.333333 603.348378 
L 945.866667 591.580688 
L 962.4 587.459882 
L 978.933333 591.580688 
L 995.466667 603.348378 
L 1012 621.119525 
L 1028.533333 642.578387 
L 1045.066667 665.230151 
L 1061.6 686.86683 
L 1078.133333 705.889308 
L 1094.666667 721.432069 
L 1111.2 733.30577 
L 1127.733333 741.820642 
L 1144.266667 747.568657 
L 1153 749.50199 
" style="fill:none;stroke:#d62728;stroke-linecap:square;stroke-width:1.5;"/>
   </g>
   <g id="line2d_20">
    <path clip-path="url(#p452ea29c2b)" d="M -1 756 
L -0.674182 756 
L 14.814545 756 
L 30.303273 756 
L 45.792 756 
L 61.280727 756 
L 76.769455 756 
L 92.258182 756 
L 107.746909 756 
L 123.235636 756 
L 138.724364 756 
L 154.213091 756 
L 169.701818 756 
L 185.190545 756 
L 200.679273 756 
L 216.168 756 
L 231.656727 756 
L 247.145455 756 
L 262.634182 756 
L 278.122909 755.999984 
L 293.611636 755.996514 
L 309.100364 755.920678 
L 324.589091 755.710009 
L 340.077818 755.351338 
L 355.566545 754.792595 
L 371.055273 753.542184 
L 386.544 751.073485 
L 402.032727 746.971238 
L 417.521455 741.903726 
L 433.010182 734.532353 
L 448.498909 722.251075 
L 463.987636 702.73703 
L 479.476364 672.893802 
L 494.965091 642.943894 
L 510.453818 607.521 
L 525.942545 559.972272 
L 541.431273 509.000844 
L 556.92 452.562299 
L 572.408727 373.667917 
L 587.897455 224.340735 
L 603.386182 142.718661 
L 618.874909 275.798784 
L 634.363636 441.430937 
L 649.852364 577.465737 
L 665.341091 672.353661 
L 680.829818 726.794827 
L 696.318545 747.409158 
L 711.807273 754.221278 
L 727.296 755.828967 
L 742.784727 755.840676 
L 758.273455 755.929919 
L 773.762182 755.838212 
L 789.250909 755.933057 
L 804.739636 755.997283 
L 820.228364 755.999989 
L 835.717091 756 
L 851.205818 756 
L 866.694545 756 
L 882.183273 756 
L 897.672 756 
L 913.160727 755.999999 
L 928.649455 755.999344 
L 944.138182 755.967437 
L 959.626909 755.842027 
L 975.115636 755.925114 
L 990.604364 755.996531 
L 1006.093091 755.999984 
L 1021.581818 756 
L 1037.070545 756 
L 1052.559273 756 
L 1068.048 756 
L 1083.536727 756 
L 1099.025455 756 
L 1114.514182 756 
L 1130.002909 756 
L 1145.491636 756 
L 1153 756 
" style="fill:none;stroke:#9467bd;stroke-linecap:square;stroke-width:1.5;"/>
   </g>
   <g id="line2d_21">
    <path clip-path="url(#p452ea29c2b)" d="M -1 756 
L 3.466667 756 
L 20 756 
L 36.533333 756 
L 53.066667 756 
L 69.6 756 
L 86.133333 756 
L 102.666667 756 
L 119.2 756 
L 135.733333 756 
L 152.266667 756 
L 168.8 756 
L 185.333333 755.999965 
L 201.866667 755.959172 
L 218.4 755.55102 
L 234.933333 755.744055 
L 251.466667 755.919753 
L 268 755.800142 
L 284.533333 755.992277 
L 301.066667 755.999997 
L 317.6 756 
L 334.133333 756 
L 350.666667 756 
L 367.2 756 
L 383.733333 755.999936 
L 400.266667 755.961813 
L 416.8 755.791372 
L 433.333333 755.989537 
L 449.866667 755.999995 
L 466.4 756 
L 482.933333 756 
L 499.466667 756 
L 516 755.999984 
L 532.533333 755.976356 
L 549.066667 755.400891 
L 565.6 754.761709 
L 582.133333 753.215021 
L 598.666667 750.71917 
L 615.2 745.455731 
L 631.733333 729.709086 
L 648.266667 703.100572 
L 664.8 652.933241 
L 681.333333 552.901928 
L 697.866667 423.0256 
L 714.4 285.255008 
L 730.933333 174.20761 
L 747.466667 134.742857 
L 764 184.339112 
L 780.533333 346.733241 
L 797.066667 577.699921 
L 813.6 719.601709 
L 830.133333 752.491343 
L 846.666667 755.757094 
L 863.2 755.92024 
L 879.733333 755.999647 
L 896.266667 756 
L 912.8 756 
L 929.333333 755.999982 
L 945.866667 755.979098 
L 962.4 755.781842 
L 978.933333 755.979098 
L 995.466667 755.999982 
L 1012 756 
L 1028.533333 756 
L 1045.066667 756 
L 1061.6 756 
L 1078.133333 756 
L 1094.666667 756 
L 1111.2 756 
L 1127.733333 756 
L 1144.266667 756 
L 1153 756 
" style="fill:none;stroke:#8c564b;stroke-linecap:square;stroke-width:1.5;"/>
   </g>
   <g id="line2d_22">
    <path clip-path="url(#p452ea29c2b)" d="M -1 755.999999 
L 2.211636 755.999999 
L 18.016 755.999994 
L 33.820364 755.999964 
L 49.624727 755.999811 
L 65.429091 755.999108 
L 81.233455 755.996188 
L 97.037818 755.985248 
L 112.842182 755.948279 
L 128.646545 755.835607 
L 144.450909 755.52606 
L 160.255273 754.759819 
L 176.059636 753.052008 
L 191.864 749.627825 
L 207.668364 743.459471 
L 223.472727 733.494101 
L 239.277091 719.094018 
L 255.081455 700.559934 
L 270.885818 679.458527 
L 286.690182 658.46952 
L 302.494545 640.683692 
L 318.298909 628.618455 
L 334.103273 623.427582 
L 349.907636 624.686005 
L 365.712 630.790478 
L 381.516364 639.687662 
L 397.320727 649.542751 
L 413.125091 659.104418 
L 428.929455 667.745359 
L 444.733818 675.301396 
L 460.538182 681.850854 
L 476.342545 687.524367 
L 492.146909 692.384475 
L 507.951273 696.392525 
L 523.755636 699.46835 
L 539.56 701.615332 
L 555.364364 703.0323 
L 571.168727 704.113286 
L 586.973091 705.29604 
L 602.777455 706.838922 
L 618.581818 708.682914 
L 634.386182 710.50559 
L 650.190545 711.928213 
L 665.994909 712.724859 
L 681.799273 712.899627 
L 697.603636 712.613649 
L 713.408 712.046469 
L 729.212364 711.291129 
L 745.016727 710.325496 
L 760.821091 709.039089 
L 776.625455 707.269517 
L 792.429818 704.816046 
L 808.234182 701.426712 
L 824.038545 696.782812 
L 839.842909 690.525648 
L 855.647273 682.379394 
L 871.451636 672.400083 
L 887.256 661.300078 
L 903.060364 650.675962 
L 918.864727 642.895001 
L 934.669091 640.491439 
L 950.473455 645.212278 
L 966.277818 657.164284 
L 982.082182 674.576733 
L 997.886545 694.383359 
L 1013.690909 713.33384 
L 1029.495273 729.042944 
L 1045.299636 740.492186 
L 1061.104 747.889807 
L 1076.908364 752.148845 
L 1092.712727 754.34108 
L 1108.517091 755.352236 
L 1124.321455 755.770854 
L 1140.125818 755.926598 
L 1153 755.969054 
" style="fill:none;stroke:#e377c2;stroke-linecap:square;stroke-width:1.5;"/>
   </g>
   <g id="line2d_23">
    <path clip-path="url(#p452ea29c2b)" d="M -1 756 
L 0.931305 756 
L 13.608201 756 
L 26.285098 756 
L 38.961994 756 
L 51.63889 756 
L 64.315787 756 
L 76.992683 756 
L 89.669579 756 
L 102.346476 756 
L 115.023372 756 
L 127.700268 756 
L 140.377165 756 
L 153.054061 756 
L 165.730957 756 
L 178.407854 756 
L 191.08475 755.999997 
L 203.761646 755.999974 
L 216.438543 755.99981 
L 229.115439 755.998795 
L 241.792335 755.993269 
L 254.469232 755.966827 
L 267.146128 755.855792 
L 279.823024 755.447018 
L 292.499921 754.129538 
L 305.176817 750.419116 
L 317.853713 741.311646 
L 330.53061 721.899604 
L 343.207506 686.166808 
L 355.884402 629.851954 
L 368.561299 554.991082 
L 381.238195 473.468882 
L 393.915091 405.705422 
L 406.591988 372.895984 
L 419.268884 386.413449 
L 431.94578 441.491942 
L 444.622677 519.917628 
L 457.299573 599.681094 
L 469.976469 664.698983 
L 482.653366 708.961237 
L 495.330262 734.622726 
L 508.007158 747.430314 
L 520.684055 752.969644 
L 533.360951 755.054767 
L 546.037847 755.739924 
L 558.714744 755.936873 
L 571.39164 755.986441 
L 584.068536 755.997136 
L 596.745433 755.997704 
L 609.422329 755.990029 
L 622.099225 755.953712 
L 634.776122 755.809313 
L 647.453018 755.306959 
L 660.129914 753.778155 
L 672.806811 749.71674 
L 685.483707 740.326266 
L 698.160603 721.511364 
L 710.8375 689.058452 
L 723.514396 641.387592 
L 736.191292 582.905331 
L 748.868189 525.403926 
L 761.545085 485.020591 
L 774.221981 475.109639 
L 786.898878 499.16539 
L 799.575774 548.849293 
L 812.25267 608.62105 
L 824.929567 663.508748 
L 837.606463 704.798578 
L 850.283359 730.997723 
L 862.960256 745.230557 
L 875.637152 751.908118 
L 888.314048 754.628584 
L 900.990945 755.594556 
L 913.667841 755.894267 
L 926.344737 755.975678 
L 939.021634 755.995065 
L 951.69853 755.999117 
L 964.375426 755.999861 
L 977.052323 755.999981 
L 989.729219 755.999998 
L 1002.406115 756 
L 1015.083012 756 
L 1027.759908 756 
L 1040.436804 756 
L 1053.1137 756 
L 1065.790597 756 
L 1078.467493 756 
L 1091.144389 756 
L 1103.821286 756 
L 1116.498182 756 
L 1129.175078 756 
L 1141.851975 756 
L 1153 756 
" style="fill:none;stroke:#7f7f7f;stroke-linecap:square;stroke-width:1.5;"/>
   </g>
   <g id="line2d_24">
    <path clip-path="url(#p452ea29c2b)" d="M -1 755.51563 
L 3.466667 755.429647 
L 20 754.784289 
L 36.533333 753.558618 
L 53.066667 751.380585 
L 69.6 747.763971 
L 86.133333 742.162119 
L 102.666667 734.087422 
L 119.2 723.292011 
L 135.733333 709.970894 
L 152.266667 694.914926 
L 168.8 679.5285 
L 185.333333 665.653873 
L 201.866667 655.211091 
L 218.4 649.744898 
L 234.933333 650.02663 
L 251.466667 655.85476 
L 268 666.127435 
L 284.533333 679.155393 
L 301.066667 693.095284 
L 317.6 706.352702 
L 334.133333 717.839016 
L 350.666667 727.040485 
L 367.2 733.931477 
L 383.733333 738.805172 
L 400.266667 742.096838 
L 416.8 744.249176 
L 433.333333 745.636335 
L 449.866667 746.538417 
L 466.4 747.147454 
L 482.933333 747.586423 
L 499.466667 747.929163 
L 516 748.216011 
L 532.533333 748.464719 
L 549.066667 748.678233 
L 565.6 748.850916 
L 582.133333 748.973811 
L 598.666667 749.038702 
L 615.2 749.04036 
L 631.733333 748.976679 
L 648.266667 748.846849 
L 664.8 748.647856 
L 681.333333 748.369102 
L 697.866667 747.983682 
L 714.4 747.433384 
L 730.933333 746.60342 
L 747.466667 745.283801 
L 764 743.118639 
L 780.533333 739.554387 
L 797.066667 733.812369 
L 813.6 724.925364 
L 830.133333 711.881994 
L 846.666667 693.903091 
L 863.2 670.823695 
L 879.733333 643.48223 
L 896.266667 613.956607 
L 912.8 585.479998 
L 929.333333 561.948377 
L 945.866667 547.086527 
L 962.4 543.506227 
L 978.933333 551.980621 
L 995.466667 571.209586 
L 1012 598.170798 
L 1028.533333 628.923513 
L 1045.066667 659.568538 
L 1061.6 687.042981 
L 1078.133333 709.538616 
L 1094.666667 726.506939 
L 1111.2 738.362757 
L 1127.733333 746.064257 
L 1144.266667 750.727587 
L 1153 752.120539 
" style="fill:none;stroke:#bcbd22;stroke-linecap:square;stroke-width:1.5;"/>
   </g>
   <g id="line2d_25">
    <path clip-path="url(#p452ea29c2b)" d="M 218.4 756 
L 218.4 103.68 
" style="fill:none;stroke:#808080;stroke-dasharray:5.55,2.4;stroke-dashoffset:0;stroke-width:1.5;"/>
   </g>
   <g id="line2d_26">
    <path clip-path="url(#p452ea29c2b)" d="M 590.4 756 
L 590.4 103.68 
" style="fill:none;stroke:#808080;stroke-dasharray:5.55,2.4;stroke-dashoffset:0;stroke-width:1.5;"/>
   </g>
   <g id="line2d_27">
    <path clip-path="url(#p452ea29c2b)" d="M 962.4 756 
L 962.4 103.68 
" style="fill:none;stroke:#808080;stroke-dasharray:5.55,2.4;stroke-dashoffset:0;stroke-width:1.5;"/>
   </g>
   <g id="line2d_28">
    <path clip-path="url(#p452ea29c2b)" d="M 404.4 756 
L 404.4 103.68 
" style="fill:none;stroke:#808080;stroke-dasharray:5.55,2.4;stroke-dashoffset:0;stroke-width:1.5;"/>
   </g>
   <g id="line2d_29">
    <path clip-path="url(#p452ea29c2b)" d="M 776.4 756 
L 776.4 103.68 
" style="fill:none;stroke:#808080;stroke-dasharray:5.55,2.4;stroke-dashoffset:0;stroke-width:1.5;"/>
   </g>
   <g id="patch_3">
    <path d="M 144 756 
L 144 103.68 
" style="fill:none;stroke:#000000;stroke-linecap:square;stroke-linejoin:miter;stroke-width:0.8;"/>
   </g>
   <g id="patch_4">
    <path d="M 1036.8 756 
L 1036.8 103.68 
" style="fill:none;stroke:#000000;stroke-linecap:square;stroke-linejoin:miter;stroke-width:0.8;"/>
   </g>
   <g id="patch_5">
    <path d="M 144 756 
L 1036.8 756 
" style="fill:none;stroke:#000000;stroke-linecap:square;stroke-linejoin:miter;stroke-width:0.8;"/>
   </g>
   <g id="patch_6">
    <path d="M 144 103.68 
L 1036.8 103.68 
" style="fill:none;stroke:#000000;stroke-linecap:square;stroke-linejoin:miter;stroke-width:0.8;"/>
   </g>
   <g id="legend_1">
    <g id="patch_7">
     <path d="M 902.189062 239.697187 
L 1029.8 239.697187 
Q 1031.8 239.697187 1031.8 237.697187 
L 1031.8 110.68 
Q 1031.8 108.68 1029.8 108.68 
L 902.189062 108.68 
Q 900.189062 108.68 900.189062 110.68 
L 900.189062 237.697187 
Q 900.189062 239.697187 902.189062 239.697187 
z
" style="fill:#ffffff;opacity:0.8;stroke:#cccccc;stroke-linejoin:miter;"/>
    </g>
    <g id="line2d_30">
     <path d="M 904.189062 116.3675 
L 924.189062 116.3675 
" style="fill:none;stroke:#1f77b4;stroke-linecap:square;stroke-width:1.5;"/>
    </g>
    <g id="line2d_31"/>
    <g id="text_18">
     <!-- araujo20-small -->
     <defs>
      <path d="M 40.578125 0 
L 40.578125 7.625 
Q 34.515625 -1.171875 24.125 -1.171875 
Q 19.53125 -1.171875 15.546875 0.578125 
Q 11.578125 2.34375 9.640625 5 
Q 7.71875 7.671875 6.9375 11.53125 
Q 6.390625 14.109375 6.390625 19.734375 
L 6.390625 51.859375 
L 15.1875 51.859375 
L 15.1875 23.09375 
Q 15.1875 16.21875 15.71875 13.8125 
Q 16.546875 10.359375 19.234375 8.375 
Q 21.921875 6.390625 25.875 6.390625 
Q 29.828125 6.390625 33.296875 8.421875 
Q 36.765625 10.453125 38.203125 13.9375 
Q 39.65625 17.4375 39.65625 24.078125 
L 39.65625 51.859375 
L 48.4375 51.859375 
L 48.4375 0 
z
" id="ArialMT-117"/>
      <path d="M 6.546875 61.375 
L 6.546875 71.578125 
L 15.328125 71.578125 
L 15.328125 61.375 
z
M -4.59375 -20.125 
L -2.9375 -12.640625 
Q -0.296875 -13.328125 1.21875 -13.328125 
Q 3.90625 -13.328125 5.21875 -11.546875 
Q 6.546875 -9.765625 6.546875 -2.640625 
L 6.546875 51.859375 
L 15.328125 51.859375 
L 15.328125 -2.828125 
Q 15.328125 -12.40625 12.84375 -16.15625 
Q 9.671875 -21.046875 2.296875 -21.046875 
Q -1.265625 -21.046875 -4.59375 -20.125 
z
" id="ArialMT-106"/>
      <path d="M 3.171875 21.484375 
L 3.171875 30.328125 
L 30.171875 30.328125 
L 30.171875 21.484375 
z
" id="ArialMT-45"/>
      <path d="M 6.59375 0 
L 6.59375 51.859375 
L 14.453125 51.859375 
L 14.453125 44.578125 
Q 16.890625 48.390625 20.9375 50.703125 
Q 25 53.03125 30.171875 53.03125 
Q 35.9375 53.03125 39.625 50.640625 
Q 43.3125 48.25 44.828125 43.953125 
Q 50.984375 53.03125 60.84375 53.03125 
Q 68.5625 53.03125 72.703125 48.75 
Q 76.859375 44.484375 76.859375 35.59375 
L 76.859375 0 
L 68.109375 0 
L 68.109375 32.671875 
Q 68.109375 37.9375 67.25 40.25 
Q 66.40625 42.578125 64.15625 43.984375 
Q 61.921875 45.40625 58.890625 45.40625 
Q 53.421875 45.40625 49.796875 41.765625 
Q 46.1875 38.140625 46.1875 30.125 
L 46.1875 0 
L 37.40625 0 
L 37.40625 33.6875 
Q 37.40625 39.546875 35.25 42.46875 
Q 33.109375 45.40625 28.21875 45.40625 
Q 24.515625 45.40625 21.359375 43.453125 
Q 18.21875 41.5 16.796875 37.734375 
Q 15.375 33.984375 15.375 26.90625 
L 15.375 0 
z
" id="ArialMT-109"/>
      <path d="M 6.390625 0 
L 6.390625 71.578125 
L 15.1875 71.578125 
L 15.1875 0 
z
" id="ArialMT-108"/>
     </defs>
     <g transform="translate(932.189062 119.8675)scale(0.1 -0.1)">
      <use xlink:href="#ArialMT-97"/>
      <use x="55.615234" xlink:href="#ArialMT-114"/>
      <use x="88.916016" xlink:href="#ArialMT-97"/>
      <use x="144.53125" xlink:href="#ArialMT-117"/>
      <use x="200.146484" xlink:href="#ArialMT-106"/>
      <use x="222.363281" xlink:href="#ArialMT-111"/>
      <use x="277.978516" xlink:href="#ArialMT-50"/>
      <use x="333.59375" xlink:href="#ArialMT-48"/>
      <use x="389.208984" xlink:href="#ArialMT-45"/>
      <use x="422.509766" xlink:href="#ArialMT-115"/>
      <use x="472.509766" xlink:href="#ArialMT-109"/>
      <use x="555.810547" xlink:href="#ArialMT-97"/>
      <use x="611.425781" xlink:href="#ArialMT-108"/>
      <use x="633.642578" xlink:href="#ArialMT-108"/>
     </g>
    </g>
    <g id="line2d_32">
     <path d="M 904.189062 130.751875 
L 924.189062 130.751875 
" style="fill:none;stroke:#ff7f0e;stroke-linecap:square;stroke-width:1.5;"/>
    </g>
    <g id="line2d_33"/>
    <g id="text_19">
     <!-- boenninghoff20-small -->
     <defs>
      <path d="M 14.703125 0 
L 6.546875 0 
L 6.546875 71.578125 
L 15.328125 71.578125 
L 15.328125 46.046875 
Q 20.90625 53.03125 29.546875 53.03125 
Q 34.328125 53.03125 38.59375 51.09375 
Q 42.875 49.171875 45.625 45.671875 
Q 48.390625 42.1875 49.953125 37.25 
Q 51.515625 32.328125 51.515625 26.703125 
Q 51.515625 13.375 44.921875 6.09375 
Q 38.328125 -1.171875 29.109375 -1.171875 
Q 19.921875 -1.171875 14.703125 6.5 
z
M 14.59375 26.3125 
Q 14.59375 17 17.140625 12.84375 
Q 21.296875 6.0625 28.375 6.0625 
Q 34.125 6.0625 38.328125 11.0625 
Q 42.53125 16.0625 42.53125 25.984375 
Q 42.53125 36.140625 38.5 40.96875 
Q 34.46875 45.796875 28.765625 45.796875 
Q 23 45.796875 18.796875 40.796875 
Q 14.59375 35.796875 14.59375 26.3125 
z
" id="ArialMT-98"/>
      <path d="M 4.984375 -4.296875 
L 13.53125 -5.5625 
Q 14.0625 -9.515625 16.5 -11.328125 
Q 19.78125 -13.765625 25.4375 -13.765625 
Q 31.546875 -13.765625 34.859375 -11.328125 
Q 38.1875 -8.890625 39.359375 -4.5 
Q 40.046875 -1.8125 39.984375 6.78125 
Q 34.234375 0 25.640625 0 
Q 14.9375 0 9.078125 7.71875 
Q 3.21875 15.4375 3.21875 26.21875 
Q 3.21875 33.640625 5.90625 39.90625 
Q 8.59375 46.1875 13.6875 49.609375 
Q 18.796875 53.03125 25.6875 53.03125 
Q 34.859375 53.03125 40.828125 45.609375 
L 40.828125 51.859375 
L 48.921875 51.859375 
L 48.921875 7.03125 
Q 48.921875 -5.078125 46.453125 -10.125 
Q 44 -15.1875 38.640625 -18.109375 
Q 33.296875 -21.046875 25.484375 -21.046875 
Q 16.21875 -21.046875 10.5 -16.875 
Q 4.78125 -12.703125 4.984375 -4.296875 
z
M 12.25 26.859375 
Q 12.25 16.65625 16.296875 11.96875 
Q 20.359375 7.28125 26.46875 7.28125 
Q 32.515625 7.28125 36.609375 11.9375 
Q 40.71875 16.609375 40.71875 26.5625 
Q 40.71875 36.078125 36.5 40.90625 
Q 32.28125 45.75 26.3125 45.75 
Q 20.453125 45.75 16.34375 40.984375 
Q 12.25 36.234375 12.25 26.859375 
z
" id="ArialMT-103"/>
      <path d="M 6.59375 0 
L 6.59375 71.578125 
L 15.375 71.578125 
L 15.375 45.90625 
Q 21.53125 53.03125 30.90625 53.03125 
Q 36.671875 53.03125 40.921875 50.75 
Q 45.171875 48.484375 47 44.484375 
Q 48.828125 40.484375 48.828125 32.859375 
L 48.828125 0 
L 40.046875 0 
L 40.046875 32.859375 
Q 40.046875 39.453125 37.1875 42.453125 
Q 34.328125 45.453125 29.109375 45.453125 
Q 25.203125 45.453125 21.75 43.421875 
Q 18.3125 41.40625 16.84375 37.9375 
Q 15.375 34.46875 15.375 28.375 
L 15.375 0 
z
" id="ArialMT-104"/>
     </defs>
     <g transform="translate(932.189062 134.251875)scale(0.1 -0.1)">
      <use xlink:href="#ArialMT-98"/>
      <use x="55.615234" xlink:href="#ArialMT-111"/>
      <use x="111.230469" xlink:href="#ArialMT-101"/>
      <use x="166.845703" xlink:href="#ArialMT-110"/>
      <use x="222.460938" xlink:href="#ArialMT-110"/>
      <use x="278.076172" xlink:href="#ArialMT-105"/>
      <use x="300.292969" xlink:href="#ArialMT-110"/>
      <use x="355.908203" xlink:href="#ArialMT-103"/>
      <use x="411.523438" xlink:href="#ArialMT-104"/>
      <use x="467.138672" xlink:href="#ArialMT-111"/>
      <use x="522.753906" xlink:href="#ArialMT-102"/>
      <use x="550.521484" xlink:href="#ArialMT-102"/>
      <use x="578.304688" xlink:href="#ArialMT-50"/>
      <use x="633.919922" xlink:href="#ArialMT-48"/>
      <use x="689.535156" xlink:href="#ArialMT-45"/>
      <use x="722.835938" xlink:href="#ArialMT-115"/>
      <use x="772.835938" xlink:href="#ArialMT-109"/>
      <use x="856.136719" xlink:href="#ArialMT-97"/>
      <use x="911.751953" xlink:href="#ArialMT-108"/>
      <use x="933.96875" xlink:href="#ArialMT-108"/>
     </g>
    </g>
    <g id="line2d_34">
     <path d="M 904.189062 145.014375 
L 924.189062 145.014375 
" style="fill:none;stroke:#2ca02c;stroke-linecap:square;stroke-width:1.5;"/>
    </g>
    <g id="line2d_35"/>
    <g id="text_20">
     <!-- faber20-small -->
     <g transform="translate(932.189062 148.514375)scale(0.1 -0.1)">
      <use xlink:href="#ArialMT-102"/>
      <use x="27.783203" xlink:href="#ArialMT-97"/>
      <use x="83.398438" xlink:href="#ArialMT-98"/>
      <use x="139.013672" xlink:href="#ArialMT-101"/>
      <use x="194.628906" xlink:href="#ArialMT-114"/>
      <use x="227.929688" xlink:href="#ArialMT-50"/>
      <use x="283.544922" xlink:href="#ArialMT-48"/>
      <use x="339.160156" xlink:href="#ArialMT-45"/>
      <use x="372.460938" xlink:href="#ArialMT-115"/>
      <use x="422.460938" xlink:href="#ArialMT-109"/>
      <use x="505.761719" xlink:href="#ArialMT-97"/>
      <use x="561.376953" xlink:href="#ArialMT-108"/>
      <use x="583.59375" xlink:href="#ArialMT-108"/>
     </g>
    </g>
    <g id="line2d_36">
     <path d="M 904.189062 159.189375 
L 924.189062 159.189375 
" style="fill:none;stroke:#d62728;stroke-linecap:square;stroke-width:1.5;"/>
    </g>
    <g id="line2d_37"/>
    <g id="text_21">
     <!-- gagala20-small -->
     <g transform="translate(932.189062 162.689375)scale(0.1 -0.1)">
      <use xlink:href="#ArialMT-103"/>
      <use x="55.615234" xlink:href="#ArialMT-97"/>
      <use x="111.230469" xlink:href="#ArialMT-103"/>
      <use x="166.845703" xlink:href="#ArialMT-97"/>
      <use x="222.460938" xlink:href="#ArialMT-108"/>
      <use x="244.677734" xlink:href="#ArialMT-97"/>
      <use x="300.292969" xlink:href="#ArialMT-50"/>
      <use x="355.908203" xlink:href="#ArialMT-48"/>
      <use x="411.523438" xlink:href="#ArialMT-45"/>
      <use x="444.824219" xlink:href="#ArialMT-115"/>
      <use x="494.824219" xlink:href="#ArialMT-109"/>
      <use x="578.125" xlink:href="#ArialMT-97"/>
      <use x="633.740234" xlink:href="#ArialMT-108"/>
      <use x="655.957031" xlink:href="#ArialMT-108"/>
     </g>
    </g>
    <g id="line2d_38">
     <path d="M 904.189062 173.451875 
L 924.189062 173.451875 
" style="fill:none;stroke:#9467bd;stroke-linecap:square;stroke-width:1.5;"/>
    </g>
    <g id="line2d_39"/>
    <g id="text_22">
     <!-- halvani20-small -->
     <g transform="translate(932.189062 176.951875)scale(0.1 -0.1)">
      <use xlink:href="#ArialMT-104"/>
      <use x="55.615234" xlink:href="#ArialMT-97"/>
      <use x="111.230469" xlink:href="#ArialMT-108"/>
      <use x="133.447266" xlink:href="#ArialMT-118"/>
      <use x="183.447266" xlink:href="#ArialMT-97"/>
      <use x="239.0625" xlink:href="#ArialMT-110"/>
      <use x="294.677734" xlink:href="#ArialMT-105"/>
      <use x="316.894531" xlink:href="#ArialMT-50"/>
      <use x="372.509766" xlink:href="#ArialMT-48"/>
      <use x="428.125" xlink:href="#ArialMT-45"/>
      <use x="461.425781" xlink:href="#ArialMT-115"/>
      <use x="511.425781" xlink:href="#ArialMT-109"/>
      <use x="594.726562" xlink:href="#ArialMT-97"/>
      <use x="650.341797" xlink:href="#ArialMT-108"/>
      <use x="672.558594" xlink:href="#ArialMT-108"/>
     </g>
    </g>
    <g id="line2d_40">
     <path d="M 904.189062 187.597188 
L 924.189062 187.597188 
" style="fill:none;stroke:#8c564b;stroke-linecap:square;stroke-width:1.5;"/>
    </g>
    <g id="line2d_41"/>
    <g id="text_23">
     <!-- ikae20-small -->
     <defs>
      <path d="M 6.640625 0 
L 6.640625 71.578125 
L 15.4375 71.578125 
L 15.4375 30.765625 
L 36.234375 51.859375 
L 47.609375 51.859375 
L 27.78125 32.625 
L 49.609375 0 
L 38.765625 0 
L 21.625 26.515625 
L 15.4375 20.5625 
L 15.4375 0 
z
" id="ArialMT-107"/>
     </defs>
     <g transform="translate(932.189062 191.097188)scale(0.1 -0.1)">
      <use xlink:href="#ArialMT-105"/>
      <use x="22.216797" xlink:href="#ArialMT-107"/>
      <use x="72.216797" xlink:href="#ArialMT-97"/>
      <use x="127.832031" xlink:href="#ArialMT-101"/>
      <use x="183.447266" xlink:href="#ArialMT-50"/>
      <use x="239.0625" xlink:href="#ArialMT-48"/>
      <use x="294.677734" xlink:href="#ArialMT-45"/>
      <use x="327.978516" xlink:href="#ArialMT-115"/>
      <use x="377.978516" xlink:href="#ArialMT-109"/>
      <use x="461.279297" xlink:href="#ArialMT-97"/>
      <use x="516.894531" xlink:href="#ArialMT-108"/>
      <use x="539.111328" xlink:href="#ArialMT-108"/>
     </g>
    </g>
    <g id="line2d_42">
     <path d="M 904.189062 201.772187 
L 924.189062 201.772187 
" style="fill:none;stroke:#e377c2;stroke-linecap:square;stroke-width:1.5;"/>
    </g>
    <g id="line2d_43"/>
    <g id="text_24">
     <!-- kipnis20-small -->
     <defs>
      <path d="M 6.59375 -19.875 
L 6.59375 51.859375 
L 14.59375 51.859375 
L 14.59375 45.125 
Q 17.4375 49.078125 21 51.046875 
Q 24.5625 53.03125 29.640625 53.03125 
Q 36.28125 53.03125 41.359375 49.609375 
Q 46.4375 46.1875 49.015625 39.953125 
Q 51.609375 33.734375 51.609375 26.3125 
Q 51.609375 18.359375 48.75 11.984375 
Q 45.90625 5.609375 40.453125 2.21875 
Q 35.015625 -1.171875 29 -1.171875 
Q 24.609375 -1.171875 21.109375 0.6875 
Q 17.625 2.546875 15.375 5.375 
L 15.375 -19.875 
z
M 14.546875 25.640625 
Q 14.546875 15.625 18.59375 10.84375 
Q 22.65625 6.0625 28.421875 6.0625 
Q 34.28125 6.0625 38.453125 11.015625 
Q 42.625 15.96875 42.625 26.375 
Q 42.625 36.28125 38.546875 41.203125 
Q 34.46875 46.140625 28.8125 46.140625 
Q 23.1875 46.140625 18.859375 40.890625 
Q 14.546875 35.640625 14.546875 25.640625 
z
" id="ArialMT-112"/>
     </defs>
     <g transform="translate(932.189062 205.272187)scale(0.1 -0.1)">
      <use xlink:href="#ArialMT-107"/>
      <use x="50" xlink:href="#ArialMT-105"/>
      <use x="72.216797" xlink:href="#ArialMT-112"/>
      <use x="127.832031" xlink:href="#ArialMT-110"/>
      <use x="183.447266" xlink:href="#ArialMT-105"/>
      <use x="205.664062" xlink:href="#ArialMT-115"/>
      <use x="255.664062" xlink:href="#ArialMT-50"/>
      <use x="311.279297" xlink:href="#ArialMT-48"/>
      <use x="366.894531" xlink:href="#ArialMT-45"/>
      <use x="400.195312" xlink:href="#ArialMT-115"/>
      <use x="450.195312" xlink:href="#ArialMT-109"/>
      <use x="533.496094" xlink:href="#ArialMT-97"/>
      <use x="589.111328" xlink:href="#ArialMT-108"/>
      <use x="611.328125" xlink:href="#ArialMT-108"/>
     </g>
    </g>
    <g id="line2d_44">
     <path d="M 904.189062 215.9175 
L 924.189062 215.9175 
" style="fill:none;stroke:#7f7f7f;stroke-linecap:square;stroke-width:1.5;"/>
    </g>
    <g id="line2d_45"/>
    <g id="text_25">
     <!-- niven20-small -->
     <g transform="translate(932.189062 219.4175)scale(0.1 -0.1)">
      <use xlink:href="#ArialMT-110"/>
      <use x="55.615234" xlink:href="#ArialMT-105"/>
      <use x="77.832031" xlink:href="#ArialMT-118"/>
      <use x="127.832031" xlink:href="#ArialMT-101"/>
      <use x="183.447266" xlink:href="#ArialMT-110"/>
      <use x="239.0625" xlink:href="#ArialMT-50"/>
      <use x="294.677734" xlink:href="#ArialMT-48"/>
      <use x="350.292969" xlink:href="#ArialMT-45"/>
      <use x="383.59375" xlink:href="#ArialMT-115"/>
      <use x="433.59375" xlink:href="#ArialMT-109"/>
      <use x="516.894531" xlink:href="#ArialMT-97"/>
      <use x="572.509766" xlink:href="#ArialMT-108"/>
      <use x="594.726562" xlink:href="#ArialMT-108"/>
     </g>
    </g>
    <g id="line2d_46">
     <path d="M 904.189062 230.0925 
L 924.189062 230.0925 
" style="fill:none;stroke:#bcbd22;stroke-linecap:square;stroke-width:1.5;"/>
    </g>
    <g id="line2d_47"/>
    <g id="text_26">
     <!-- weerasinghe20-small -->
     <defs>
      <path d="M 16.15625 0 
L 0.296875 51.859375 
L 9.375 51.859375 
L 17.625 21.921875 
L 20.703125 10.796875 
Q 20.90625 11.625 23.390625 21.484375 
L 31.640625 51.859375 
L 40.671875 51.859375 
L 48.4375 21.78125 
L 51.03125 11.859375 
L 54 21.875 
L 62.890625 51.859375 
L 71.4375 51.859375 
L 55.21875 0 
L 46.09375 0 
L 37.84375 31.0625 
L 35.84375 39.890625 
L 25.34375 0 
z
" id="ArialMT-119"/>
     </defs>
     <g transform="translate(932.189062 233.5925)scale(0.1 -0.1)">
      <use xlink:href="#ArialMT-119"/>
      <use x="72.216797" xlink:href="#ArialMT-101"/>
      <use x="127.832031" xlink:href="#ArialMT-101"/>
      <use x="183.447266" xlink:href="#ArialMT-114"/>
      <use x="216.748047" xlink:href="#ArialMT-97"/>
      <use x="272.363281" xlink:href="#ArialMT-115"/>
      <use x="322.363281" xlink:href="#ArialMT-105"/>
      <use x="344.580078" xlink:href="#ArialMT-110"/>
      <use x="400.195312" xlink:href="#ArialMT-103"/>
      <use x="455.810547" xlink:href="#ArialMT-104"/>
      <use x="511.425781" xlink:href="#ArialMT-101"/>
      <use x="567.041016" xlink:href="#ArialMT-50"/>
      <use x="622.65625" xlink:href="#ArialMT-48"/>
      <use x="678.271484" xlink:href="#ArialMT-45"/>
      <use x="711.572266" xlink:href="#ArialMT-115"/>
      <use x="761.572266" xlink:href="#ArialMT-109"/>
      <use x="844.873047" xlink:href="#ArialMT-97"/>
      <use x="900.488281" xlink:href="#ArialMT-108"/>
      <use x="922.705078" xlink:href="#ArialMT-108"/>
     </g>
    </g>
   </g>
  </g>
 </g>
 <defs>
  <clipPath id="p452ea29c2b">
   <rect height="652.32" width="892.8" x="144" y="103.68"/>
  </clipPath>
 </defs>
</svg>
