<?xml version="1.0" encoding="utf-8" standalone="no"?>
<!DOCTYPE svg PUBLIC "-//W3C//DTD SVG 1.1//EN"
  "http://www.w3.org/Graphics/SVG/1.1/DTD/svg11.dtd">
<!-- Created with matplotlib (https://matplotlib.org/) -->
<svg height="288pt" version="1.1" viewBox="0 0 432 288" width="432pt" xmlns="http://www.w3.org/2000/svg" xmlns:xlink="http://www.w3.org/1999/xlink">
 <defs>
  <style type="text/css">
*{stroke-linecap:butt;stroke-linejoin:round;}
  </style>
 </defs>
 <g id="figure_1">
  <g id="patch_1">
   <path d="M 0 288 
L 432 288 
L 432 0 
L 0 0 
z
" style="fill:#ffffff;"/>
  </g>
  <g id="axes_1">
   <g id="patch_2">
    <path d="M 54 252 
L 388.8 252 
L 388.8 34.56 
L 54 34.56 
z
" style="fill:#ffffff;"/>
   </g>
   <g id="PolyCollection_1">
    <defs>
     <path d="M 137.74326 -45.883636 
L 137.65674 -45.883636 
L 137.588898 -47.398533 
L 137.444853 -48.913429 
L 137.171537 -50.428325 
L 136.704192 -51.943221 
L 135.979053 -53.458118 
L 134.953726 -54.973014 
L 133.630488 -56.48791 
L 132.070541 -58.002806 
L 130.383211 -59.517702 
L 128.683914 -61.032599 
L 127.038294 -62.547495 
L 125.427298 -64.062391 
L 123.756831 -65.577287 
L 121.90244 -67.092184 
L 119.757515 -68.60708 
L 117.262456 -70.121976 
L 114.413091 -71.636872 
L 111.252821 -73.151769 
L 107.849969 -74.666665 
L 104.269548 -76.181561 
L 100.560663 -77.696457 
L 96.772427 -79.211353 
L 92.982146 -80.72625 
L 89.301903 -82.241146 
L 85.850405 -83.756042 
L 82.717688 -85.270938 
L 79.958502 -86.785835 
L 77.608776 -88.300731 
L 75.686697 -89.815627 
L 74.17095 -91.330523 
L 72.997306 -92.84542 
L 72.096356 -94.360316 
L 71.432367 -95.875212 
L 70.997134 -97.390108 
L 70.776046 -98.905004 
L 70.74 -100.419901 
L 70.876478 -101.934797 
L 71.218163 -103.449693 
L 71.827652 -104.964589 
L 72.742555 -106.479486 
L 73.925673 -107.994382 
L 75.267569 -109.509278 
L 76.648823 -111.024174 
L 78.013209 -112.539071 
L 79.387284 -114.053967 
L 80.835976 -115.568863 
L 82.410766 -117.083759 
L 84.141734 -118.598655 
L 86.054907 -120.113552 
L 88.163031 -121.628448 
L 90.429952 -123.143344 
L 92.766053 -124.65824 
L 95.082825 -126.173137 
L 97.354722 -127.688033 
L 99.617327 -129.202929 
L 101.901083 -130.717825 
L 104.174007 -132.232722 
L 106.35955 -133.747618 
L 108.414702 -135.262514 
L 110.385793 -136.77741 
L 112.3803 -138.292306 
L 114.479491 -139.807203 
L 116.672823 -141.322099 
L 118.86678 -142.836995 
L 120.949931 -144.351891 
L 122.854387 -145.866788 
L 124.568739 -147.381684 
L 126.105633 -148.89658 
L 127.464045 -150.411476 
L 128.623076 -151.926373 
L 129.569882 -153.441269 
L 130.332592 -154.956165 
L 130.984011 -156.471061 
L 131.606027 -157.985957 
L 132.240836 -159.500854 
L 132.871854 -161.01575 
L 133.452718 -162.530646 
L 133.956844 -164.045542 
L 134.400836 -165.560439 
L 134.823829 -167.075335 
L 135.249062 -168.590231 
L 135.666257 -170.105127 
L 136.046034 -171.620024 
L 136.36596 -173.13492 
L 136.623343 -174.649816 
L 136.828909 -176.164712 
L 136.993095 -177.679608 
L 137.118877 -179.194505 
L 137.205575 -180.709401 
L 137.257826 -182.224297 
L 137.290158 -183.739193 
L 137.322388 -185.25409 
L 137.369495 -186.768986 
L 137.43421 -188.283882 
L 137.507587 -189.798778 
L 137.576123 -191.313675 
L 137.629615 -192.828571 
L 137.664896 -194.343467 
L 137.684695 -195.858363 
L 137.715305 -195.858363 
L 137.715305 -195.858363 
L 137.735104 -194.343467 
L 137.770385 -192.828571 
L 137.823877 -191.313675 
L 137.892413 -189.798778 
L 137.96579 -188.283882 
L 138.030505 -186.768986 
L 138.077612 -185.25409 
L 138.109842 -183.739193 
L 138.142174 -182.224297 
L 138.194425 -180.709401 
L 138.281123 -179.194505 
L 138.406905 -177.679608 
L 138.571091 -176.164712 
L 138.776657 -174.649816 
L 139.03404 -173.13492 
L 139.353966 -171.620024 
L 139.733743 -170.105127 
L 140.150938 -168.590231 
L 140.576171 -167.075335 
L 140.999164 -165.560439 
L 141.443156 -164.045542 
L 141.947282 -162.530646 
L 142.528146 -161.01575 
L 143.159164 -159.500854 
L 143.793973 -157.985957 
L 144.415989 -156.471061 
L 145.067408 -154.956165 
L 145.830118 -153.441269 
L 146.776924 -151.926373 
L 147.935955 -150.411476 
L 149.294367 -148.89658 
L 150.831261 -147.381684 
L 152.545613 -145.866788 
L 154.450069 -144.351891 
L 156.53322 -142.836995 
L 158.727177 -141.322099 
L 160.920509 -139.807203 
L 163.0197 -138.292306 
L 165.014207 -136.77741 
L 166.985298 -135.262514 
L 169.04045 -133.747618 
L 171.225993 -132.232722 
L 173.498917 -130.717825 
L 175.782673 -129.202929 
L 178.045278 -127.688033 
L 180.317175 -126.173137 
L 182.633947 -124.65824 
L 184.970048 -123.143344 
L 187.236969 -121.628448 
L 189.345093 -120.113552 
L 191.258266 -118.598655 
L 192.989234 -117.083759 
L 194.564024 -115.568863 
L 196.012716 -114.053967 
L 197.386791 -112.539071 
L 198.751177 -111.024174 
L 200.132431 -109.509278 
L 201.474327 -107.994382 
L 202.657445 -106.479486 
L 203.572348 -104.964589 
L 204.181837 -103.449693 
L 204.523522 -101.934797 
L 204.66 -100.419901 
L 204.623954 -98.905004 
L 204.402866 -97.390108 
L 203.967633 -95.875212 
L 203.303644 -94.360316 
L 202.402694 -92.84542 
L 201.22905 -91.330523 
L 199.713303 -89.815627 
L 197.791224 -88.300731 
L 195.441498 -86.785835 
L 192.682312 -85.270938 
L 189.549595 -83.756042 
L 186.098097 -82.241146 
L 182.417854 -80.72625 
L 178.627573 -79.211353 
L 174.839337 -77.696457 
L 171.130452 -76.181561 
L 167.550031 -74.666665 
L 164.147179 -73.151769 
L 160.986909 -71.636872 
L 158.137544 -70.121976 
L 155.642485 -68.60708 
L 153.49756 -67.092184 
L 151.643169 -65.577287 
L 149.972702 -64.062391 
L 148.361706 -62.547495 
L 146.716086 -61.032599 
L 145.016789 -59.517702 
L 143.329459 -58.002806 
L 141.769512 -56.48791 
L 140.446274 -54.973014 
L 139.420947 -53.458118 
L 138.695808 -51.943221 
L 138.228463 -50.428325 
L 137.955147 -48.913429 
L 137.811102 -47.398533 
L 137.74326 -45.883636 
z
" id="m836ee946fb" style="stroke:#3f3f3f;stroke-width:1.5;"/>
    </defs>
    <g clip-path="url(#p88f1e75068)">
     <use style="fill:#3274a1;stroke:#3f3f3f;stroke-width:1.5;" x="0" xlink:href="#m836ee946fb" y="288"/>
    </g>
   </g>
   <g id="PolyCollection_2">
    <defs>
     <path d="M 305.1567 -46.110663 
L 305.0433 -46.110663 
L 304.945153 -48.105064 
L 304.733402 -50.099465 
L 304.340286 -52.093866 
L 303.707552 -54.088267 
L 302.819084 -56.082668 
L 301.726192 -58.077069 
L 300.543751 -60.07147 
L 299.403104 -62.065871 
L 298.374448 -64.060272 
L 297.407949 -66.054673 
L 296.350439 -68.049074 
L 295.043993 -70.043475 
L 293.439384 -72.037876 
L 291.634784 -74.032277 
L 289.80426 -76.026678 
L 288.067413 -78.021079 
L 286.403827 -80.01548 
L 284.685484 -82.009881 
L 282.79724 -84.004282 
L 280.731409 -85.998683 
L 278.571422 -87.993084 
L 276.396441 -89.987485 
L 274.212331 -91.981886 
L 271.966176 -93.976287 
L 269.60795 -95.970688 
L 267.143335 -97.965089 
L 264.661292 -99.95949 
L 262.322921 -101.953891 
L 260.279778 -103.948292 
L 258.545877 -105.942693 
L 256.942951 -107.937094 
L 255.217984 -109.931495 
L 253.266235 -111.925896 
L 251.26139 -113.920297 
L 249.566219 -115.914698 
L 248.504936 -117.9091 
L 248.190957 -119.903501 
L 248.514706 -121.897902 
L 249.244573 -123.892303 
L 250.146693 -125.886704 
L 251.07075 -127.881105 
L 251.981329 -129.875506 
L 252.92951 -131.869907 
L 253.993502 -133.864308 
L 255.24306 -135.858709 
L 256.75339 -137.85311 
L 258.629571 -139.847511 
L 260.973459 -141.841912 
L 263.780403 -143.836313 
L 266.853162 -145.830714 
L 269.846162 -147.825115 
L 272.441826 -149.819516 
L 274.52187 -151.813917 
L 276.195931 -153.808318 
L 277.687541 -155.802719 
L 279.194417 -157.79712 
L 280.828351 -159.791521 
L 282.641085 -161.785922 
L 284.663 -163.780323 
L 286.890506 -165.774724 
L 289.23682 -167.769125 
L 291.519214 -169.763526 
L 293.527481 -171.757927 
L 295.134859 -173.752328 
L 296.362134 -175.746729 
L 297.339787 -177.74113 
L 298.20261 -179.735531 
L 299.009064 -181.729932 
L 299.745186 -183.724333 
L 300.387519 -185.718734 
L 300.951024 -187.713135 
L 301.47885 -189.707536 
L 301.999199 -191.701937 
L 302.503221 -193.696338 
L 302.961828 -195.690739 
L 303.352922 -197.68514 
L 303.670054 -199.679541 
L 303.913972 -201.673942 
L 304.083887 -203.668343 
L 304.177827 -205.662744 
L 304.200788 -207.657145 
L 304.173046 -209.651546 
L 304.129122 -211.645947 
L 304.10557 -213.640348 
L 304.126881 -215.634749 
L 304.198877 -217.62915 
L 304.3105 -219.623551 
L 304.441243 -221.617952 
L 304.571339 -223.612353 
L 304.688986 -225.606754 
L 304.789942 -227.601155 
L 304.872966 -229.595557 
L 304.937863 -231.589958 
L 304.986566 -233.584359 
L 305.023001 -235.57876 
L 305.050733 -237.573161 
L 305.071374 -239.567562 
L 305.085379 -241.561963 
L 305.093584 -243.556364 
L 305.106416 -243.556364 
L 305.106416 -243.556364 
L 305.114621 -241.561963 
L 305.128626 -239.567562 
L 305.149267 -237.573161 
L 305.176999 -235.57876 
L 305.213434 -233.584359 
L 305.262137 -231.589958 
L 305.327034 -229.595557 
L 305.410058 -227.601155 
L 305.511014 -225.606754 
L 305.628661 -223.612353 
L 305.758757 -221.617952 
L 305.8895 -219.623551 
L 306.001123 -217.62915 
L 306.073119 -215.634749 
L 306.09443 -213.640348 
L 306.070878 -211.645947 
L 306.026954 -209.651546 
L 305.999212 -207.657145 
L 306.022173 -205.662744 
L 306.116113 -203.668343 
L 306.286028 -201.673942 
L 306.529946 -199.679541 
L 306.847078 -197.68514 
L 307.238172 -195.690739 
L 307.696779 -193.696338 
L 308.200801 -191.701937 
L 308.72115 -189.707536 
L 309.248976 -187.713135 
L 309.812481 -185.718734 
L 310.454814 -183.724333 
L 311.190936 -181.729932 
L 311.99739 -179.735531 
L 312.860213 -177.74113 
L 313.837866 -175.746729 
L 315.065141 -173.752328 
L 316.672519 -171.757927 
L 318.680786 -169.763526 
L 320.96318 -167.769125 
L 323.309494 -165.774724 
L 325.537 -163.780323 
L 327.558915 -161.785922 
L 329.371649 -159.791521 
L 331.005583 -157.79712 
L 332.512459 -155.802719 
L 334.004069 -153.808318 
L 335.67813 -151.813917 
L 337.758174 -149.819516 
L 340.353838 -147.825115 
L 343.346838 -145.830714 
L 346.419597 -143.836313 
L 349.226541 -141.841912 
L 351.570429 -139.847511 
L 353.44661 -137.85311 
L 354.95694 -135.858709 
L 356.206498 -133.864308 
L 357.27049 -131.869907 
L 358.218671 -129.875506 
L 359.12925 -127.881105 
L 360.053307 -125.886704 
L 360.955427 -123.892303 
L 361.685294 -121.897902 
L 362.009043 -119.903501 
L 361.695064 -117.9091 
L 360.633781 -115.914698 
L 358.93861 -113.920297 
L 356.933765 -111.925896 
L 354.982016 -109.931495 
L 353.257049 -107.937094 
L 351.654123 -105.942693 
L 349.920222 -103.948292 
L 347.877079 -101.953891 
L 345.538708 -99.95949 
L 343.056665 -97.965089 
L 340.59205 -95.970688 
L 338.233824 -93.976287 
L 335.987669 -91.981886 
L 333.803559 -89.987485 
L 331.628578 -87.993084 
L 329.468591 -85.998683 
L 327.40276 -84.004282 
L 325.514516 -82.009881 
L 323.796173 -80.01548 
L 322.132587 -78.021079 
L 320.39574 -76.026678 
L 318.565216 -74.032277 
L 316.760616 -72.037876 
L 315.156007 -70.043475 
L 313.849561 -68.049074 
L 312.792051 -66.054673 
L 311.825552 -64.060272 
L 310.796896 -62.065871 
L 309.656249 -60.07147 
L 308.473808 -58.077069 
L 307.380916 -56.082668 
L 306.492448 -54.088267 
L 305.859714 -52.093866 
L 305.466598 -50.099465 
L 305.254847 -48.105064 
L 305.1567 -46.110663 
z
" id="m6d7903c379" style="stroke:#3f3f3f;stroke-width:1.5;"/>
    </defs>
    <g clip-path="url(#p88f1e75068)">
     <use style="fill:#e1812c;stroke:#3f3f3f;stroke-width:1.5;" x="0" xlink:href="#m6d7903c379" y="288"/>
    </g>
   </g>
   <g id="matplotlib.axis_1">
    <g id="xtick_1">
     <g id="line2d_1">
      <defs>
       <path d="M 0 0 
L 0 3.5 
" id="ma72935f75d" style="stroke:#000000;stroke-width:0.8;"/>
      </defs>
      <g>
       <use style="stroke:#000000;stroke-width:0.8;" x="137.7" xlink:href="#ma72935f75d" y="252"/>
      </g>
     </g>
     <g id="text_1">
      <!-- False -->
      <defs>
       <path d="M 8.203125 0 
L 8.203125 71.578125 
L 56.5 71.578125 
L 56.5 63.140625 
L 17.671875 63.140625 
L 17.671875 40.96875 
L 51.265625 40.96875 
L 51.265625 32.515625 
L 17.671875 32.515625 
L 17.671875 0 
z
" id="ArialMT-70"/>
       <path d="M 40.4375 6.390625 
Q 35.546875 2.25 31.03125 0.53125 
Q 26.515625 -1.171875 21.34375 -1.171875 
Q 12.796875 -1.171875 8.203125 3 
Q 3.609375 7.171875 3.609375 13.671875 
Q 3.609375 17.484375 5.34375 20.625 
Q 7.078125 23.78125 9.890625 25.6875 
Q 12.703125 27.59375 16.21875 28.5625 
Q 18.796875 29.25 24.03125 29.890625 
Q 34.671875 31.15625 39.703125 32.90625 
Q 39.75 34.71875 39.75 35.203125 
Q 39.75 40.578125 37.25 42.78125 
Q 33.890625 45.75 27.25 45.75 
Q 21.046875 45.75 18.09375 43.578125 
Q 15.140625 41.40625 13.71875 35.890625 
L 5.125 37.0625 
Q 6.296875 42.578125 8.984375 45.96875 
Q 11.671875 49.359375 16.75 51.1875 
Q 21.828125 53.03125 28.515625 53.03125 
Q 35.15625 53.03125 39.296875 51.46875 
Q 43.453125 49.90625 45.40625 47.53125 
Q 47.359375 45.171875 48.140625 41.546875 
Q 48.578125 39.3125 48.578125 33.453125 
L 48.578125 21.734375 
Q 48.578125 9.46875 49.140625 6.21875 
Q 49.703125 2.984375 51.375 0 
L 42.1875 0 
Q 40.828125 2.734375 40.4375 6.390625 
z
M 39.703125 26.03125 
Q 34.90625 24.078125 25.34375 22.703125 
Q 19.921875 21.921875 17.671875 20.9375 
Q 15.4375 19.96875 14.203125 18.09375 
Q 12.984375 16.21875 12.984375 13.921875 
Q 12.984375 10.40625 15.640625 8.0625 
Q 18.3125 5.71875 23.4375 5.71875 
Q 28.515625 5.71875 32.46875 7.9375 
Q 36.421875 10.15625 38.28125 14.015625 
Q 39.703125 17 39.703125 22.796875 
z
" id="ArialMT-97"/>
       <path d="M 6.390625 0 
L 6.390625 71.578125 
L 15.1875 71.578125 
L 15.1875 0 
z
" id="ArialMT-108"/>
       <path d="M 3.078125 15.484375 
L 11.765625 16.84375 
Q 12.5 11.625 15.84375 8.84375 
Q 19.1875 6.0625 25.203125 6.0625 
Q 31.25 6.0625 34.171875 8.515625 
Q 37.109375 10.984375 37.109375 14.3125 
Q 37.109375 17.28125 34.515625 19 
Q 32.71875 20.171875 25.53125 21.96875 
Q 15.875 24.421875 12.140625 26.203125 
Q 8.40625 27.984375 6.46875 31.125 
Q 4.546875 34.28125 4.546875 38.09375 
Q 4.546875 41.546875 6.125 44.5 
Q 7.71875 47.46875 10.453125 49.421875 
Q 12.5 50.921875 16.03125 51.96875 
Q 19.578125 53.03125 23.640625 53.03125 
Q 29.734375 53.03125 34.34375 51.265625 
Q 38.96875 49.515625 41.15625 46.5 
Q 43.359375 43.5 44.1875 38.484375 
L 35.59375 37.3125 
Q 35.015625 41.3125 32.203125 43.546875 
Q 29.390625 45.796875 24.265625 45.796875 
Q 18.21875 45.796875 15.625 43.796875 
Q 13.03125 41.796875 13.03125 39.109375 
Q 13.03125 37.40625 14.109375 36.03125 
Q 15.1875 34.625 17.484375 33.6875 
Q 18.796875 33.203125 25.25 31.453125 
Q 34.578125 28.953125 38.25 27.359375 
Q 41.9375 25.78125 44.03125 22.75 
Q 46.140625 19.734375 46.140625 15.234375 
Q 46.140625 10.84375 43.578125 6.953125 
Q 41.015625 3.078125 36.171875 0.953125 
Q 31.34375 -1.171875 25.25 -1.171875 
Q 15.140625 -1.171875 9.84375 3.03125 
Q 4.546875 7.234375 3.078125 15.484375 
z
" id="ArialMT-115"/>
       <path d="M 42.09375 16.703125 
L 51.171875 15.578125 
Q 49.03125 7.625 43.21875 3.21875 
Q 37.40625 -1.171875 28.375 -1.171875 
Q 17 -1.171875 10.328125 5.828125 
Q 3.65625 12.84375 3.65625 25.484375 
Q 3.65625 38.578125 10.390625 45.796875 
Q 17.140625 53.03125 27.875 53.03125 
Q 38.28125 53.03125 44.875 45.953125 
Q 51.46875 38.875 51.46875 26.03125 
Q 51.46875 25.25 51.421875 23.6875 
L 12.75 23.6875 
Q 13.234375 15.140625 17.578125 10.59375 
Q 21.921875 6.0625 28.421875 6.0625 
Q 33.25 6.0625 36.671875 8.59375 
Q 40.09375 11.140625 42.09375 16.703125 
z
M 13.234375 30.90625 
L 42.1875 30.90625 
Q 41.609375 37.453125 38.875 40.71875 
Q 34.671875 45.796875 27.984375 45.796875 
Q 21.921875 45.796875 17.796875 41.75 
Q 13.671875 37.703125 13.234375 30.90625 
z
" id="ArialMT-101"/>
      </defs>
      <g transform="translate(125.474219 266.157812)scale(0.1 -0.1)">
       <use xlink:href="#ArialMT-70"/>
       <use x="61.083984" xlink:href="#ArialMT-97"/>
       <use x="116.699219" xlink:href="#ArialMT-108"/>
       <use x="138.916016" xlink:href="#ArialMT-115"/>
       <use x="188.916016" xlink:href="#ArialMT-101"/>
      </g>
     </g>
    </g>
    <g id="xtick_2">
     <g id="line2d_2">
      <g>
       <use style="stroke:#000000;stroke-width:0.8;" x="305.1" xlink:href="#ma72935f75d" y="252"/>
      </g>
     </g>
     <g id="text_2">
      <!-- True -->
      <defs>
       <path d="M 25.921875 0 
L 25.921875 63.140625 
L 2.34375 63.140625 
L 2.34375 71.578125 
L 59.078125 71.578125 
L 59.078125 63.140625 
L 35.40625 63.140625 
L 35.40625 0 
z
" id="ArialMT-84"/>
       <path d="M 6.5 0 
L 6.5 51.859375 
L 14.40625 51.859375 
L 14.40625 44 
Q 17.4375 49.515625 20 51.265625 
Q 22.5625 53.03125 25.640625 53.03125 
Q 30.078125 53.03125 34.671875 50.203125 
L 31.640625 42.046875 
Q 28.421875 43.953125 25.203125 43.953125 
Q 22.3125 43.953125 20.015625 42.21875 
Q 17.71875 40.484375 16.75 37.40625 
Q 15.28125 32.71875 15.28125 27.15625 
L 15.28125 0 
z
" id="ArialMT-114"/>
       <path d="M 40.578125 0 
L 40.578125 7.625 
Q 34.515625 -1.171875 24.125 -1.171875 
Q 19.53125 -1.171875 15.546875 0.578125 
Q 11.578125 2.34375 9.640625 5 
Q 7.71875 7.671875 6.9375 11.53125 
Q 6.390625 14.109375 6.390625 19.734375 
L 6.390625 51.859375 
L 15.1875 51.859375 
L 15.1875 23.09375 
Q 15.1875 16.21875 15.71875 13.8125 
Q 16.546875 10.359375 19.234375 8.375 
Q 21.921875 6.390625 25.875 6.390625 
Q 29.828125 6.390625 33.296875 8.421875 
Q 36.765625 10.453125 38.203125 13.9375 
Q 39.65625 17.4375 39.65625 24.078125 
L 39.65625 51.859375 
L 48.4375 51.859375 
L 48.4375 0 
z
" id="ArialMT-117"/>
      </defs>
      <g transform="translate(294.822656 266.157812)scale(0.1 -0.1)">
       <use xlink:href="#ArialMT-84"/>
       <use x="61.037109" xlink:href="#ArialMT-114"/>
       <use x="94.337891" xlink:href="#ArialMT-117"/>
       <use x="149.953125" xlink:href="#ArialMT-101"/>
      </g>
     </g>
    </g>
    <g id="text_3">
     <!-- same -->
     <defs>
      <path d="M 6.59375 0 
L 6.59375 51.859375 
L 14.453125 51.859375 
L 14.453125 44.578125 
Q 16.890625 48.390625 20.9375 50.703125 
Q 25 53.03125 30.171875 53.03125 
Q 35.9375 53.03125 39.625 50.640625 
Q 43.3125 48.25 44.828125 43.953125 
Q 50.984375 53.03125 60.84375 53.03125 
Q 68.5625 53.03125 72.703125 48.75 
Q 76.859375 44.484375 76.859375 35.59375 
L 76.859375 0 
L 68.109375 0 
L 68.109375 32.671875 
Q 68.109375 37.9375 67.25 40.25 
Q 66.40625 42.578125 64.15625 43.984375 
Q 61.921875 45.40625 58.890625 45.40625 
Q 53.421875 45.40625 49.796875 41.765625 
Q 46.1875 38.140625 46.1875 30.125 
L 46.1875 0 
L 37.40625 0 
L 37.40625 33.6875 
Q 37.40625 39.546875 35.25 42.46875 
Q 33.109375 45.40625 28.21875 45.40625 
Q 24.515625 45.40625 21.359375 43.453125 
Q 18.21875 41.5 16.796875 37.734375 
Q 15.375 33.984375 15.375 26.90625 
L 15.375 0 
z
" id="ArialMT-109"/>
     </defs>
     <g transform="translate(209.174219 279.303125)scale(0.1 -0.1)">
      <use xlink:href="#ArialMT-115"/>
      <use x="50" xlink:href="#ArialMT-97"/>
      <use x="105.615234" xlink:href="#ArialMT-109"/>
      <use x="188.916016" xlink:href="#ArialMT-101"/>
     </g>
    </g>
   </g>
   <g id="matplotlib.axis_2">
    <g id="ytick_1">
     <g id="line2d_3">
      <defs>
       <path d="M 0 0 
L -3.5 0 
" id="m7b1654e4e0" style="stroke:#000000;stroke-width:0.8;"/>
      </defs>
      <g>
       <use style="stroke:#000000;stroke-width:0.8;" x="54" xlink:href="#m7b1654e4e0" y="234.906791"/>
      </g>
     </g>
     <g id="text_4">
      <!-- 0.0 -->
      <defs>
       <path d="M 4.15625 35.296875 
Q 4.15625 48 6.765625 55.734375 
Q 9.375 63.484375 14.515625 67.671875 
Q 19.671875 71.875 27.484375 71.875 
Q 33.25 71.875 37.59375 69.546875 
Q 41.9375 67.234375 44.765625 62.859375 
Q 47.609375 58.5 49.21875 52.21875 
Q 50.828125 45.953125 50.828125 35.296875 
Q 50.828125 22.703125 48.234375 14.96875 
Q 45.65625 7.234375 40.5 3 
Q 35.359375 -1.21875 27.484375 -1.21875 
Q 17.140625 -1.21875 11.234375 6.203125 
Q 4.15625 15.140625 4.15625 35.296875 
z
M 13.1875 35.296875 
Q 13.1875 17.671875 17.3125 11.828125 
Q 21.4375 6 27.484375 6 
Q 33.546875 6 37.671875 11.859375 
Q 41.796875 17.71875 41.796875 35.296875 
Q 41.796875 52.984375 37.671875 58.78125 
Q 33.546875 64.59375 27.390625 64.59375 
Q 21.34375 64.59375 17.71875 59.46875 
Q 13.1875 52.9375 13.1875 35.296875 
z
" id="ArialMT-48"/>
       <path d="M 9.078125 0 
L 9.078125 10.015625 
L 19.09375 10.015625 
L 19.09375 0 
z
" id="ArialMT-46"/>
      </defs>
      <g transform="translate(33.1 238.485697)scale(0.1 -0.1)">
       <use xlink:href="#ArialMT-48"/>
       <use x="55.615234" xlink:href="#ArialMT-46"/>
       <use x="83.398438" xlink:href="#ArialMT-48"/>
      </g>
     </g>
    </g>
    <g id="ytick_2">
     <g id="line2d_4">
      <g>
       <use style="stroke:#000000;stroke-width:0.8;" x="54" xlink:href="#m7b1654e4e0" y="198.65996"/>
      </g>
     </g>
     <g id="text_5">
      <!-- 0.2 -->
      <defs>
       <path d="M 50.34375 8.453125 
L 50.34375 0 
L 3.03125 0 
Q 2.9375 3.171875 4.046875 6.109375 
Q 5.859375 10.9375 9.828125 15.625 
Q 13.8125 20.3125 21.34375 26.46875 
Q 33.015625 36.03125 37.109375 41.625 
Q 41.21875 47.21875 41.21875 52.203125 
Q 41.21875 57.421875 37.46875 61 
Q 33.734375 64.59375 27.734375 64.59375 
Q 21.390625 64.59375 17.578125 60.78125 
Q 13.765625 56.984375 13.71875 50.25 
L 4.6875 51.171875 
Q 5.609375 61.28125 11.65625 66.578125 
Q 17.71875 71.875 27.9375 71.875 
Q 38.234375 71.875 44.234375 66.15625 
Q 50.25 60.453125 50.25 52 
Q 50.25 47.703125 48.484375 43.546875 
Q 46.734375 39.40625 42.65625 34.8125 
Q 38.578125 30.21875 29.109375 22.21875 
Q 21.1875 15.578125 18.9375 13.203125 
Q 16.703125 10.84375 15.234375 8.453125 
z
" id="ArialMT-50"/>
      </defs>
      <g transform="translate(33.1 202.238866)scale(0.1 -0.1)">
       <use xlink:href="#ArialMT-48"/>
       <use x="55.615234" xlink:href="#ArialMT-46"/>
       <use x="83.398438" xlink:href="#ArialMT-50"/>
      </g>
     </g>
    </g>
    <g id="ytick_3">
     <g id="line2d_5">
      <g>
       <use style="stroke:#000000;stroke-width:0.8;" x="54" xlink:href="#m7b1654e4e0" y="162.41313"/>
      </g>
     </g>
     <g id="text_6">
      <!-- 0.4 -->
      <defs>
       <path d="M 32.328125 0 
L 32.328125 17.140625 
L 1.265625 17.140625 
L 1.265625 25.203125 
L 33.9375 71.578125 
L 41.109375 71.578125 
L 41.109375 25.203125 
L 50.78125 25.203125 
L 50.78125 17.140625 
L 41.109375 17.140625 
L 41.109375 0 
z
M 32.328125 25.203125 
L 32.328125 57.46875 
L 9.90625 25.203125 
z
" id="ArialMT-52"/>
      </defs>
      <g transform="translate(33.1 165.992036)scale(0.1 -0.1)">
       <use xlink:href="#ArialMT-48"/>
       <use x="55.615234" xlink:href="#ArialMT-46"/>
       <use x="83.398438" xlink:href="#ArialMT-52"/>
      </g>
     </g>
    </g>
    <g id="ytick_4">
     <g id="line2d_6">
      <g>
       <use style="stroke:#000000;stroke-width:0.8;" x="54" xlink:href="#m7b1654e4e0" y="126.1663"/>
      </g>
     </g>
     <g id="text_7">
      <!-- 0.6 -->
      <defs>
       <path d="M 49.75 54.046875 
L 41.015625 53.375 
Q 39.84375 58.546875 37.703125 60.890625 
Q 34.125 64.65625 28.90625 64.65625 
Q 24.703125 64.65625 21.53125 62.3125 
Q 17.390625 59.28125 14.984375 53.46875 
Q 12.59375 47.65625 12.5 36.921875 
Q 15.671875 41.75 20.265625 44.09375 
Q 24.859375 46.4375 29.890625 46.4375 
Q 38.671875 46.4375 44.84375 39.96875 
Q 51.03125 33.5 51.03125 23.25 
Q 51.03125 16.5 48.125 10.71875 
Q 45.21875 4.9375 40.140625 1.859375 
Q 35.0625 -1.21875 28.609375 -1.21875 
Q 17.625 -1.21875 10.6875 6.859375 
Q 3.765625 14.9375 3.765625 33.5 
Q 3.765625 54.25 11.421875 63.671875 
Q 18.109375 71.875 29.4375 71.875 
Q 37.890625 71.875 43.28125 67.140625 
Q 48.6875 62.40625 49.75 54.046875 
z
M 13.875 23.1875 
Q 13.875 18.65625 15.796875 14.5 
Q 17.71875 10.359375 21.1875 8.171875 
Q 24.65625 6 28.46875 6 
Q 34.03125 6 38.03125 10.484375 
Q 42.046875 14.984375 42.046875 22.703125 
Q 42.046875 30.125 38.078125 34.390625 
Q 34.125 38.671875 28.125 38.671875 
Q 22.171875 38.671875 18.015625 34.390625 
Q 13.875 30.125 13.875 23.1875 
z
" id="ArialMT-54"/>
      </defs>
      <g transform="translate(33.1 129.745206)scale(0.1 -0.1)">
       <use xlink:href="#ArialMT-48"/>
       <use x="55.615234" xlink:href="#ArialMT-46"/>
       <use x="83.398438" xlink:href="#ArialMT-54"/>
      </g>
     </g>
    </g>
    <g id="ytick_5">
     <g id="line2d_7">
      <g>
       <use style="stroke:#000000;stroke-width:0.8;" x="54" xlink:href="#m7b1654e4e0" y="89.919469"/>
      </g>
     </g>
     <g id="text_8">
      <!-- 0.8 -->
      <defs>
       <path d="M 17.671875 38.8125 
Q 12.203125 40.828125 9.5625 44.53125 
Q 6.9375 48.25 6.9375 53.421875 
Q 6.9375 61.234375 12.546875 66.546875 
Q 18.171875 71.875 27.484375 71.875 
Q 36.859375 71.875 42.578125 66.421875 
Q 48.296875 60.984375 48.296875 53.171875 
Q 48.296875 48.1875 45.671875 44.5 
Q 43.0625 40.828125 37.75 38.8125 
Q 44.34375 36.671875 47.78125 31.875 
Q 51.21875 27.09375 51.21875 20.453125 
Q 51.21875 11.28125 44.71875 5.03125 
Q 38.234375 -1.21875 27.640625 -1.21875 
Q 17.046875 -1.21875 10.546875 5.046875 
Q 4.046875 11.328125 4.046875 20.703125 
Q 4.046875 27.6875 7.59375 32.390625 
Q 11.140625 37.109375 17.671875 38.8125 
z
M 15.921875 53.71875 
Q 15.921875 48.640625 19.1875 45.40625 
Q 22.46875 42.1875 27.6875 42.1875 
Q 32.765625 42.1875 36.015625 45.375 
Q 39.265625 48.578125 39.265625 53.21875 
Q 39.265625 58.0625 35.90625 61.359375 
Q 32.5625 64.65625 27.59375 64.65625 
Q 22.5625 64.65625 19.234375 61.421875 
Q 15.921875 58.203125 15.921875 53.71875 
z
M 13.09375 20.65625 
Q 13.09375 16.890625 14.875 13.375 
Q 16.65625 9.859375 20.171875 7.921875 
Q 23.6875 6 27.734375 6 
Q 34.03125 6 38.125 10.046875 
Q 42.234375 14.109375 42.234375 20.359375 
Q 42.234375 26.703125 38.015625 30.859375 
Q 33.796875 35.015625 27.4375 35.015625 
Q 21.234375 35.015625 17.15625 30.90625 
Q 13.09375 26.8125 13.09375 20.65625 
z
" id="ArialMT-56"/>
      </defs>
      <g transform="translate(33.1 93.498376)scale(0.1 -0.1)">
       <use xlink:href="#ArialMT-48"/>
       <use x="55.615234" xlink:href="#ArialMT-46"/>
       <use x="83.398438" xlink:href="#ArialMT-56"/>
      </g>
     </g>
    </g>
    <g id="ytick_6">
     <g id="line2d_8">
      <g>
       <use style="stroke:#000000;stroke-width:0.8;" x="54" xlink:href="#m7b1654e4e0" y="53.672639"/>
      </g>
     </g>
     <g id="text_9">
      <!-- 1.0 -->
      <defs>
       <path d="M 37.25 0 
L 28.46875 0 
L 28.46875 56 
Q 25.296875 52.984375 20.140625 49.953125 
Q 14.984375 46.921875 10.890625 45.40625 
L 10.890625 53.90625 
Q 18.265625 57.375 23.78125 62.296875 
Q 29.296875 67.234375 31.59375 71.875 
L 37.25 71.875 
z
" id="ArialMT-49"/>
      </defs>
      <g transform="translate(33.1 57.251545)scale(0.1 -0.1)">
       <use xlink:href="#ArialMT-49"/>
       <use x="55.615234" xlink:href="#ArialMT-46"/>
       <use x="83.398438" xlink:href="#ArialMT-48"/>
      </g>
     </g>
    </g>
    <g id="text_10">
     <!-- topic-sim -->
     <defs>
      <path d="M 25.78125 7.859375 
L 27.046875 0.09375 
Q 23.34375 -0.6875 20.40625 -0.6875 
Q 15.625 -0.6875 12.984375 0.828125 
Q 10.359375 2.34375 9.28125 4.8125 
Q 8.203125 7.28125 8.203125 15.1875 
L 8.203125 45.015625 
L 1.765625 45.015625 
L 1.765625 51.859375 
L 8.203125 51.859375 
L 8.203125 64.703125 
L 16.9375 69.96875 
L 16.9375 51.859375 
L 25.78125 51.859375 
L 25.78125 45.015625 
L 16.9375 45.015625 
L 16.9375 14.703125 
Q 16.9375 10.9375 17.40625 9.859375 
Q 17.875 8.796875 18.921875 8.15625 
Q 19.96875 7.515625 21.921875 7.515625 
Q 23.390625 7.515625 25.78125 7.859375 
z
" id="ArialMT-116"/>
      <path d="M 3.328125 25.921875 
Q 3.328125 40.328125 11.328125 47.265625 
Q 18.015625 53.03125 27.640625 53.03125 
Q 38.328125 53.03125 45.109375 46.015625 
Q 51.90625 39.015625 51.90625 26.65625 
Q 51.90625 16.65625 48.90625 10.90625 
Q 45.90625 5.171875 40.15625 2 
Q 34.421875 -1.171875 27.640625 -1.171875 
Q 16.75 -1.171875 10.03125 5.8125 
Q 3.328125 12.796875 3.328125 25.921875 
z
M 12.359375 25.921875 
Q 12.359375 15.96875 16.703125 11.015625 
Q 21.046875 6.0625 27.640625 6.0625 
Q 34.1875 6.0625 38.53125 11.03125 
Q 42.875 16.015625 42.875 26.21875 
Q 42.875 35.84375 38.5 40.796875 
Q 34.125 45.75 27.640625 45.75 
Q 21.046875 45.75 16.703125 40.8125 
Q 12.359375 35.890625 12.359375 25.921875 
z
" id="ArialMT-111"/>
      <path d="M 6.59375 -19.875 
L 6.59375 51.859375 
L 14.59375 51.859375 
L 14.59375 45.125 
Q 17.4375 49.078125 21 51.046875 
Q 24.5625 53.03125 29.640625 53.03125 
Q 36.28125 53.03125 41.359375 49.609375 
Q 46.4375 46.1875 49.015625 39.953125 
Q 51.609375 33.734375 51.609375 26.3125 
Q 51.609375 18.359375 48.75 11.984375 
Q 45.90625 5.609375 40.453125 2.21875 
Q 35.015625 -1.171875 29 -1.171875 
Q 24.609375 -1.171875 21.109375 0.6875 
Q 17.625 2.546875 15.375 5.375 
L 15.375 -19.875 
z
M 14.546875 25.640625 
Q 14.546875 15.625 18.59375 10.84375 
Q 22.65625 6.0625 28.421875 6.0625 
Q 34.28125 6.0625 38.453125 11.015625 
Q 42.625 15.96875 42.625 26.375 
Q 42.625 36.28125 38.546875 41.203125 
Q 34.46875 46.140625 28.8125 46.140625 
Q 23.1875 46.140625 18.859375 40.890625 
Q 14.546875 35.640625 14.546875 25.640625 
z
" id="ArialMT-112"/>
      <path d="M 6.640625 61.46875 
L 6.640625 71.578125 
L 15.4375 71.578125 
L 15.4375 61.46875 
z
M 6.640625 0 
L 6.640625 51.859375 
L 15.4375 51.859375 
L 15.4375 0 
z
" id="ArialMT-105"/>
      <path d="M 40.4375 19 
L 49.078125 17.875 
Q 47.65625 8.9375 41.8125 3.875 
Q 35.984375 -1.171875 27.484375 -1.171875 
Q 16.84375 -1.171875 10.375 5.78125 
Q 3.90625 12.75 3.90625 25.734375 
Q 3.90625 34.125 6.6875 40.421875 
Q 9.46875 46.734375 15.15625 49.875 
Q 20.84375 53.03125 27.546875 53.03125 
Q 35.984375 53.03125 41.359375 48.75 
Q 46.734375 44.484375 48.25 36.625 
L 39.703125 35.296875 
Q 38.484375 40.53125 35.375 43.15625 
Q 32.28125 45.796875 27.875 45.796875 
Q 21.234375 45.796875 17.078125 41.03125 
Q 12.9375 36.28125 12.9375 25.984375 
Q 12.9375 15.53125 16.9375 10.796875 
Q 20.953125 6.0625 27.390625 6.0625 
Q 32.5625 6.0625 36.03125 9.234375 
Q 39.5 12.40625 40.4375 19 
z
" id="ArialMT-99"/>
      <path d="M 3.171875 21.484375 
L 3.171875 30.328125 
L 30.171875 30.328125 
L 30.171875 21.484375 
z
" id="ArialMT-45"/>
     </defs>
     <g transform="translate(27.1125 163.281563)rotate(-90)scale(0.1 -0.1)">
      <use xlink:href="#ArialMT-116"/>
      <use x="27.783203" xlink:href="#ArialMT-111"/>
      <use x="83.398438" xlink:href="#ArialMT-112"/>
      <use x="139.013672" xlink:href="#ArialMT-105"/>
      <use x="161.230469" xlink:href="#ArialMT-99"/>
      <use x="211.230469" xlink:href="#ArialMT-45"/>
      <use x="244.53125" xlink:href="#ArialMT-115"/>
      <use x="294.53125" xlink:href="#ArialMT-105"/>
      <use x="316.748047" xlink:href="#ArialMT-109"/>
     </g>
    </g>
   </g>
   <g id="line2d_9">
    <path clip-path="url(#p88f1e75068)" d="M 137.7 234.467266 
L 137.7 120.479102 
" style="fill:none;stroke:#3f3f3f;stroke-linecap:square;stroke-width:1.5;"/>
   </g>
   <g id="line2d_10">
    <path clip-path="url(#p88f1e75068)" d="M 137.7 198.469261 
L 137.7 167.208581 
" style="fill:none;stroke:#3f3f3f;stroke-linecap:square;stroke-width:4.5;"/>
   </g>
   <g id="line2d_11">
    <path clip-path="url(#p88f1e75068)" d="M 305.1 232.660334 
L 305.1 90.629305 
" style="fill:none;stroke:#3f3f3f;stroke-linecap:square;stroke-width:1.5;"/>
   </g>
   <g id="line2d_12">
    <path clip-path="url(#p88f1e75068)" d="M 305.1 183.835079 
L 305.1 146.542065 
" style="fill:none;stroke:#3f3f3f;stroke-linecap:square;stroke-width:4.5;"/>
   </g>
   <g id="patch_3">
    <path d="M 54 252 
L 54 34.56 
" style="fill:none;stroke:#000000;stroke-linecap:square;stroke-linejoin:miter;stroke-width:0.8;"/>
   </g>
   <g id="patch_4">
    <path d="M 388.8 252 
L 388.8 34.56 
" style="fill:none;stroke:#000000;stroke-linecap:square;stroke-linejoin:miter;stroke-width:0.8;"/>
   </g>
   <g id="patch_5">
    <path d="M 54 252 
L 388.8 252 
" style="fill:none;stroke:#000000;stroke-linecap:square;stroke-linejoin:miter;stroke-width:0.8;"/>
   </g>
   <g id="patch_6">
    <path d="M 54 34.56 
L 388.8 34.56 
" style="fill:none;stroke:#000000;stroke-linecap:square;stroke-linejoin:miter;stroke-width:0.8;"/>
   </g>
   <g id="PathCollection_1">
    <defs>
     <path d="M 0 1.5 
C 0.397805 1.5 0.77937 1.341951 1.06066 1.06066 
C 1.341951 0.77937 1.5 0.397805 1.5 0 
C 1.5 -0.397805 1.341951 -0.77937 1.06066 -1.06066 
C 0.77937 -1.341951 0.397805 -1.5 0 -1.5 
C -0.397805 -1.5 -0.77937 -1.341951 -1.06066 -1.06066 
C -1.341951 -0.77937 -1.5 -0.397805 -1.5 0 
C -1.5 0.397805 -1.341951 0.77937 -1.06066 1.06066 
C -0.77937 1.341951 -0.397805 1.5 0 1.5 
z
" id="m99de567b80" style="stroke:#3f3f3f;"/>
    </defs>
    <g clip-path="url(#p88f1e75068)">
     <use style="fill:#ffffff;stroke:#3f3f3f;" x="137.7" xlink:href="#m99de567b80" y="183.584561"/>
    </g>
   </g>
   <g id="PathCollection_2">
    <g clip-path="url(#p88f1e75068)">
     <use style="fill:#ffffff;stroke:#3f3f3f;" x="305.1" xlink:href="#m99de567b80" y="165.447288"/>
    </g>
   </g>
  </g>
 </g>
 <defs>
  <clipPath id="p88f1e75068">
   <rect height="217.44" width="334.8" x="54" y="34.56"/>
  </clipPath>
 </defs>
</svg>
